<svg id="svg" xmlns="http://www.w3.org/2000/svg" xmlns:xlink="http://www.w3.org/1999/xlink" width="400" height="212.60000000000002" viewBox="0, 0, 400,212.60000000000002"><g id="svgg"><path id="path0" d="M206.427 44.321 C 205.345 46.695,205.872 53.352,208.006 64.275 C 208.917 68.938,208.806 68.711,209.466 67.241 C 211.499 62.710,211.015 56.765,207.795 46.700 C 206.848 43.740,206.760 43.589,206.427 44.321 M192.710 46.936 C 188.125 57.700,187.077 64.753,189.245 70.250 C 189.581 71.103,189.911 71.800,189.978 71.800 C 190.285 71.800,193.102 60.583,194.123 55.300 C 194.967 50.934,194.900 44.200,194.014 44.200 C 193.938 44.200,193.351 45.431,192.710 46.936 M122.200 46.931 C 107.878 47.179,90.898 49.137,78.400 51.982 C 76.475 52.421,73.865 52.968,72.600 53.198 C 61.158 55.283,40.249 62.498,27.700 68.691 C 9.639 77.603,0.390 85.578,0.084 92.500 L 0.022 93.900 0.192 92.600 C 1.076 85.819,8.113 79.389,23.905 70.933 C 36.984 63.929,61.110 55.401,74.060 53.204 C 75.358 52.984,77.113 52.627,77.960 52.412 C 83.977 50.881,92.119 49.595,103.900 48.313 C 121.781 46.366,143.358 46.945,160.200 49.823 C 162.125 50.152,164.015 50.460,164.400 50.507 L 165.100 50.593 164.400 50.404 C 162.469 49.882,154.049 48.620,148.400 48.005 C 141.460 47.249,130.282 46.791,122.200 46.931 M261.143 48.002 C 259.860 49.011,259.682 51.507,260.744 53.592 C 261.952 55.962,264.319 56.633,267.000 55.365 C 267.605 55.079,268.385 54.785,268.734 54.710 C 271.219 54.181,270.839 52.971,267.300 50.143 C 264.217 47.680,262.369 47.037,261.143 48.002 M280.604 48.611 C 278.792 49.379,279.146 50.833,281.715 53.184 C 285.183 56.358,287.545 57.047,288.515 55.170 C 290.035 52.232,283.954 47.191,280.604 48.611 M246.124 49.311 C 242.822 49.967,239.190 51.537,237.493 53.042 C 236.947 53.527,236.171 54.123,235.769 54.366 C 231.255 57.101,233.482 62.067,239.235 62.092 C 241.936 62.104,242.741 61.222,243.182 57.764 C 243.592 54.547,244.490 53.272,247.003 52.338 C 248.134 51.918,249.800 50.422,249.800 49.827 C 249.800 48.995,248.577 48.824,246.124 49.311 M226.400 51.011 C 224.805 51.567,222.735 52.271,221.800 52.575 C 220.865 52.880,218.693 53.773,216.973 54.559 C 215.254 55.346,213.409 56.100,212.873 56.236 C 212.338 56.372,211.876 56.496,211.846 56.512 C 211.817 56.527,211.882 57.165,211.990 57.928 C 212.098 58.691,212.289 61.022,212.415 63.108 L 212.643 66.900 213.560 68.000 C 214.064 68.605,214.988 69.643,215.613 70.306 C 216.237 70.969,217.076 72.024,217.477 72.650 C 219.257 75.433,220.337 75.424,221.119 72.618 C 221.291 72.003,221.481 71.320,221.542 71.100 C 221.649 70.716,221.637 70.714,221.261 71.050 C 220.261 71.942,218.600 71.224,218.600 69.900 C 218.600 68.031,221.770 67.846,221.808 69.713 C 221.813 69.969,221.920 69.863,222.124 69.400 C 222.325 68.943,222.393 68.403,222.319 67.843 C 222.048 65.795,222.570 63.892,224.726 59.065 C 224.795 58.911,224.496 58.781,223.866 58.690 C 221.138 58.297,221.092 57.913,223.576 56.271 C 225.793 54.805,226.556 54.118,226.924 53.259 C 227.094 52.862,227.770 52.194,228.699 51.507 C 231.201 49.657,230.638 49.535,226.400 51.011 M297.541 50.603 C 295.999 51.816,296.282 55.524,298.057 57.358 C 299.482 58.830,301.912 58.852,302.661 57.400 C 304.230 54.356,299.967 48.695,297.541 50.603 M134.500 50.777 C 133.721 51.136,129.756 54.160,129.243 54.786 C 127.919 56.404,128.102 56.754,130.800 57.751 C 131.515 58.016,132.415 58.356,132.800 58.507 C 134.977 59.363,137.142 58.344,138.191 55.968 C 139.827 52.265,137.716 49.296,134.500 50.777 M166.100 50.914 C 166.650 51.067,167.235 51.186,167.400 51.178 C 167.565 51.171,167.250 51.039,166.700 50.886 C 166.150 50.733,165.565 50.614,165.400 50.622 C 165.235 50.629,165.550 50.761,166.100 50.914 M114.885 51.564 C 110.823 52.968,108.563 57.536,111.243 58.922 C 113.001 59.832,119.603 54.691,119.359 52.603 C 119.223 51.440,116.843 50.887,114.885 51.564 M169.000 51.600 C 169.684 51.819,170.210 51.819,169.700 51.600 C 169.480 51.505,169.120 51.431,168.900 51.434 C 168.578 51.439,168.598 51.471,169.000 51.600 M149.250 51.932 C 148.483 52.242,150.526 55.000,151.523 55.000 C 153.520 55.000,155.160 57.212,155.610 60.513 C 156.088 64.018,156.972 64.897,159.889 64.765 C 165.511 64.510,167.415 59.830,163.026 57.052 C 162.407 56.660,161.525 55.997,161.066 55.580 C 158.675 53.405,151.268 51.118,149.250 51.932 M172.300 52.413 C 173.510 52.730,174.587 52.963,174.693 52.930 C 174.917 52.862,170.740 51.791,170.356 51.818 C 170.215 51.828,171.090 52.096,172.300 52.413 M168.697 52.805 C 168.586 52.985,169.685 53.986,170.819 54.736 C 171.305 55.058,171.750 55.581,171.980 56.102 C 172.358 56.956,173.653 58.020,175.816 59.254 C 177.694 60.326,177.560 60.871,175.325 61.254 C 174.545 61.388,174.027 61.570,174.080 61.692 C 174.130 61.806,174.624 62.935,175.177 64.200 C 176.277 66.712,176.725 68.799,176.528 70.494 C 176.464 71.048,176.497 71.635,176.602 71.800 C 176.730 72.000,176.795 72.016,176.797 71.850 C 176.810 70.798,178.866 70.412,179.585 71.327 C 180.524 72.520,179.728 73.902,178.188 73.754 L 177.240 73.663 177.538 74.665 C 178.397 77.557,178.940 77.963,180.331 76.750 C 180.887 76.265,181.033 76.202,180.905 76.500 C 179.640 79.460,179.284 83.039,179.871 86.900 C 180.038 88.000,180.491 91.015,180.878 93.600 C 181.264 96.185,181.898 100.235,182.285 102.600 C 182.673 104.965,183.175 108.340,183.399 110.100 C 183.624 111.860,184.026 114.425,184.292 115.800 C 184.874 118.806,186.001 126.080,186.694 131.300 C 187.829 139.854,189.000 142.828,188.711 136.422 C 188.633 134.705,188.532 131.005,188.486 128.200 C 188.415 123.859,188.346 122.921,188.016 121.900 C 186.973 118.662,186.319 111.234,186.461 104.245 C 186.598 97.525,187.128 93.194,188.607 86.716 L 189.197 84.133 188.584 82.218 C 187.694 79.439,186.847 75.840,186.489 73.308 C 186.317 72.094,186.156 71.023,186.131 70.930 C 186.107 70.836,185.617 71.131,185.043 71.585 C 183.746 72.610,183.731 72.481,184.977 70.990 L 185.953 69.821 185.964 65.760 C 185.970 63.527,186.054 61.094,186.151 60.354 L 186.328 59.008 185.314 58.673 C 184.756 58.488,183.445 57.940,182.400 57.454 C 179.437 56.075,178.197 55.565,176.900 55.190 C 176.240 54.999,174.530 54.421,173.100 53.906 C 170.372 52.924,168.857 52.545,168.697 52.805 M99.100 53.381 C 95.631 54.997,94.584 60.833,97.673 61.334 C 100.706 61.827,103.365 57.268,101.816 54.231 C 101.204 53.031,100.396 52.778,99.100 53.381 M175.017 53.075 C 175.177 53.219,179.656 54.411,179.736 54.331 C 179.780 54.287,178.800 53.969,177.558 53.625 C 175.418 53.032,174.827 52.904,175.017 53.075 M182.185 55.213 C 183.112 55.534,183.905 55.761,183.948 55.719 C 184.039 55.628,180.993 54.593,180.699 54.615 C 180.590 54.623,181.258 54.892,182.185 55.213 M318.947 55.330 C 316.906 55.912,318.787 61.859,321.571 63.624 C 324.305 65.359,327.011 62.265,325.527 59.100 C 324.468 56.838,320.876 54.780,318.947 55.330 M184.901 56.171 C 185.341 56.375,185.926 56.600,186.201 56.671 C 186.475 56.742,186.340 56.634,185.899 56.429 C 185.459 56.225,184.874 56.000,184.599 55.929 C 184.325 55.858,184.460 55.966,184.901 56.171 M255.876 57.415 C 250.388 59.526,252.026 66.749,257.973 66.661 C 261.857 66.604,262.176 66.071,260.911 61.756 C 260.456 60.201,260.200 58.911,260.200 58.164 L 260.200 57.000 258.550 57.010 C 257.410 57.018,256.584 57.142,255.876 57.415 M77.052 58.684 C 72.512 60.371,71.276 65.648,75.118 66.948 C 76.600 67.449,78.524 65.926,79.881 63.178 C 81.832 59.228,80.649 57.348,77.052 58.684 M278.941 59.279 C 275.032 60.355,275.480 67.059,279.536 68.186 C 282.602 69.037,284.314 68.088,285.090 65.108 C 285.936 61.859,285.179 60.132,282.650 59.536 C 280.525 59.035,279.966 58.996,278.941 59.279 M338.742 59.355 C 337.086 60.378,338.667 62.236,341.852 63.010 C 343.088 63.310,343.400 63.177,343.400 62.349 C 343.400 59.958,340.639 58.184,338.742 59.355 M139.376 59.742 L 138.651 59.821 138.554 61.261 C 138.500 62.052,138.168 63.661,137.816 64.835 C 136.630 68.787,136.962 69.300,140.700 69.300 C 144.353 69.300,146.200 67.770,146.200 64.746 C 146.200 61.551,143.169 59.329,139.376 59.742 M299.402 60.796 C 298.777 61.964,300.891 66.097,303.378 68.573 C 306.347 71.528,311.000 72.083,311.000 69.482 C 311.000 69.297,311.360 68.754,311.800 68.277 C 314.296 65.569,310.358 62.393,302.700 60.936 C 299.852 60.394,299.622 60.384,299.402 60.796 M118.300 61.891 C 118.190 61.926,117.354 62.115,116.443 62.312 C 113.966 62.845,113.210 63.897,113.474 66.445 C 113.879 70.350,116.072 72.065,119.299 71.000 C 122.433 69.966,123.688 65.285,121.456 62.955 C 120.834 62.305,118.971 61.677,118.300 61.891 M56.980 62.452 C 55.751 63.268,54.885 65.815,55.725 66.137 C 56.524 66.444,59.942 64.980,60.532 64.079 C 61.549 62.528,58.776 61.258,56.980 62.452 M95.954 63.796 C 90.377 64.972,86.488 67.152,86.260 69.231 C 86.164 70.103,87.050 71.800,87.601 71.800 C 87.711 71.800,87.800 71.984,87.800 72.210 C 87.800 74.839,92.009 74.590,95.084 71.780 C 97.507 69.566,99.935 65.170,99.497 63.790 C 99.338 63.288,98.356 63.290,95.954 63.796 M235.041 63.634 C 231.387 64.205,230.001 66.893,232.097 69.342 C 232.875 70.251,232.934 70.400,232.515 70.400 C 231.064 70.400,229.399 74.374,229.089 78.578 C 229.020 79.525,228.781 80.795,228.560 81.400 C 227.372 84.651,228.165 88.558,230.749 92.179 C 234.102 96.878,236.954 98.208,235.804 94.536 C 235.155 92.466,235.053 88.589,235.503 83.166 C 235.731 80.413,235.811 78.181,235.728 76.835 L 235.601 74.755 236.093 75.077 C 237.307 75.873,237.525 75.576,237.818 72.721 C 238.114 69.832,238.872 68.412,240.324 68.027 C 241.072 67.828,241.188 66.952,240.613 65.826 C 239.728 64.090,237.565 63.239,235.041 63.634 M333.186 65.971 C 332.647 66.408,332.852 67.203,333.712 68.011 L 334.192 68.462 335.125 67.881 C 336.459 67.050,336.750 66.550,336.215 66.015 C 335.656 65.456,333.854 65.430,333.186 65.971 M358.650 65.747 C 357.483 66.149,360.048 70.000,362.383 71.353 C 362.887 71.645,363.651 72.135,364.080 72.442 C 365.733 73.624,365.992 72.749,364.728 70.256 C 363.635 68.098,359.891 65.321,358.650 65.747 M160.768 66.436 C 158.636 67.004,156.746 70.339,158.372 70.664 C 159.919 70.974,160.690 72.369,161.024 75.458 C 161.327 78.269,161.664 78.684,162.820 77.672 C 163.113 77.416,163.140 77.669,163.136 80.546 C 163.133 82.281,163.293 85.365,163.492 87.400 C 163.911 91.701,163.821 94.542,163.194 96.784 C 162.106 100.679,164.162 100.094,167.627 95.523 C 170.546 91.671,171.561 87.564,170.374 84.400 C 170.147 83.795,169.888 82.473,169.798 81.463 C 169.400 77.004,168.191 73.859,166.627 73.211 L 166.030 72.964 166.709 72.074 C 169.350 68.615,165.677 65.129,160.768 66.436 M212.597 68.034 C 212.475 70.897,212.108 75.934,211.777 79.302 L 211.345 83.705 212.077 89.502 C 213.267 98.927,213.417 100.637,213.537 106.200 C 213.706 114.012,213.155 119.443,211.567 125.600 C 210.422 130.039,210.430 129.994,210.278 133.414 C 209.960 140.607,211.130 137.677,212.400 128.100 C 213.150 122.443,214.308 114.912,214.799 112.500 C 215.000 111.510,215.223 110.160,215.295 109.500 C 215.531 107.324,216.012 103.976,216.904 98.300 C 217.388 95.220,217.926 91.597,218.099 90.249 C 218.272 88.901,218.452 87.686,218.500 87.549 C 219.682 84.129,219.346 76.431,217.900 73.845 C 216.947 72.139,212.624 67.402,212.597 68.034 M63.200 68.661 C 62.035 69.059,62.194 69.913,63.587 70.745 C 64.626 71.366,64.691 71.380,65.057 71.048 C 66.807 69.465,65.556 67.858,63.200 68.661 M38.700 69.134 C 35.501 70.827,33.418 73.272,33.404 75.350 C 33.397 76.401,33.920 76.191,37.221 73.818 C 40.430 71.512,41.679 67.557,38.700 69.134 M248.818 69.275 C 246.159 69.985,246.533 72.357,249.928 76.316 C 253.013 79.913,253.157 80.994,250.648 81.724 C 248.202 82.435,247.033 88.054,248.407 92.500 C 249.386 95.668,251.842 98.943,253.939 99.877 L 254.778 100.251 255.669 99.729 C 259.725 97.352,260.601 92.681,258.262 85.900 C 255.901 79.055,255.566 77.930,255.620 77.013 C 256.027 70.105,254.066 67.873,248.818 69.275 M270.000 69.900 C 270.000 70.083,270.097 70.201,270.215 70.162 C 270.333 70.122,270.430 70.004,270.430 69.900 C 270.430 69.796,270.333 69.678,270.215 69.638 C 270.097 69.599,270.000 69.717,270.000 69.900 M268.921 71.408 C 263.582 73.005,267.652 86.924,275.340 93.363 C 278.371 95.902,279.038 96.102,280.567 94.925 C 286.096 90.671,286.967 86.708,283.430 81.900 C 282.863 81.130,282.036 79.943,281.592 79.263 C 278.493 74.517,271.994 70.488,268.921 71.408 M146.141 71.874 C 143.539 72.603,142.917 74.254,143.192 79.700 C 143.255 80.956,143.120 81.428,140.722 88.327 C 138.253 95.431,139.217 100.484,143.438 102.573 L 144.272 102.986 145.258 102.449 C 147.531 101.212,149.762 97.978,150.598 94.706 C 151.673 90.505,150.467 84.854,148.426 84.527 C 145.712 84.093,145.835 82.647,148.888 79.100 C 151.609 75.939,152.282 74.171,151.322 72.706 C 150.794 71.900,147.776 71.415,146.141 71.874 M344.335 72.293 C 342.186 74.442,348.476 82.000,352.413 82.000 C 353.583 82.000,355.825 80.665,356.098 79.806 C 356.914 77.234,346.223 70.405,344.335 72.293 M128.339 72.528 C 128.179 72.688,128.360 73.000,128.612 73.000 C 128.715 73.000,128.800 72.865,128.800 72.700 C 128.800 72.391,128.564 72.303,128.339 72.528 M183.800 72.550 C 183.800 72.687,181.634 75.433,181.158 75.900 C 180.603 76.445,181.726 74.669,182.607 73.611 C 183.590 72.430,183.800 72.243,183.800 72.550 M289.161 73.269 C 287.977 73.601,286.786 74.383,286.106 75.274 L 285.580 75.964 286.266 77.732 C 289.905 87.118,294.550 91.812,300.715 92.333 L 302.150 92.454 303.078 91.599 C 305.068 89.765,306.192 86.141,305.541 83.660 C 304.112 78.208,294.128 71.876,289.161 73.269 M126.777 74.381 C 123.526 75.421,119.254 79.015,116.701 82.858 C 116.101 83.761,115.292 84.950,114.902 85.500 C 111.911 89.720,113.322 94.264,118.825 98.138 L 119.732 98.776 121.016 98.002 C 132.059 91.352,136.994 71.112,126.777 74.381 M52.543 75.024 C 50.633 75.313,46.938 77.529,44.431 79.888 C 42.467 81.736,42.279 82.784,43.715 83.880 C 46.178 85.761,48.634 85.219,51.701 82.118 C 55.601 78.175,56.038 74.494,52.543 75.024 M330.200 75.200 C 327.724 77.676,334.462 86.687,337.651 85.163 C 341.270 83.434,341.355 81.484,337.934 78.732 C 333.270 74.981,331.313 74.087,330.200 75.200 M313.799 75.492 C 309.056 76.182,308.423 79.466,312.091 84.345 C 316.649 90.409,323.777 91.322,326.012 86.129 C 327.621 82.387,323.202 76.627,317.851 75.493 C 316.283 75.161,316.070 75.161,313.799 75.492 M106.300 76.096 C 101.515 76.982,95.463 81.534,93.594 85.651 C 92.043 89.069,94.677 95.200,97.697 95.200 C 103.695 95.200,108.801 90.242,112.476 80.851 C 113.363 78.586,113.368 78.773,112.395 77.718 C 110.977 76.179,108.872 75.619,106.300 76.096 M361.904 76.072 C 360.669 76.975,363.671 81.105,366.642 82.589 C 370.626 84.580,370.893 80.344,366.920 78.174 C 366.443 77.913,365.433 77.327,364.676 76.872 C 363.058 75.899,362.401 75.709,361.904 76.072 M379.800 77.200 C 378.082 78.918,380.588 84.000,383.152 84.000 C 385.139 84.000,383.351 78.316,380.977 77.088 C 380.271 76.723,380.277 76.723,379.800 77.200 M66.754 77.895 C 65.181 78.296,59.950 82.132,58.831 83.705 C 57.879 85.043,58.363 86.217,60.452 87.635 C 61.902 88.620,62.672 88.550,64.561 87.260 C 69.192 84.100,70.892 76.839,66.754 77.895 M80.724 78.410 C 72.157 80.563,69.601 91.203,77.341 92.492 C 83.083 93.448,91.676 83.462,88.361 79.686 C 87.386 78.576,82.988 77.841,80.724 78.410 M34.700 79.555 C 34.150 79.861,33.430 80.298,33.100 80.524 C 32.770 80.751,31.982 81.267,31.350 81.671 C 29.010 83.163,28.299 85.124,29.814 85.907 C 31.050 86.546,32.890 85.694,34.944 83.532 C 38.012 80.302,37.858 77.794,34.700 79.555 M17.320 80.609 C 16.320 81.487,14.559 85.019,14.640 85.983 C 14.759 87.387,16.570 87.417,17.949 86.038 C 20.461 83.525,19.864 78.375,17.320 80.609 M190.723 89.545 C 189.185 114.184,191.445 129.280,198.462 141.250 C 199.690 143.344,199.527 143.317,200.872 141.650 C 209.604 130.826,212.218 119.009,210.707 97.200 C 210.543 94.835,210.407 92.203,210.404 91.350 C 210.402 90.453,210.316 89.800,210.200 89.800 C 210.090 89.800,210.000 90.002,210.000 90.250 C 210.000 90.498,209.912 91.645,209.804 92.800 C 209.696 93.955,209.425 98.275,209.201 102.400 C 208.165 121.466,206.351 129.717,201.474 137.550 C 200.362 139.336,200.458 139.350,199.540 137.269 C 196.068 129.400,194.467 121.314,192.496 101.700 C 191.611 92.896,191.017 87.555,190.911 87.445 C 190.881 87.415,190.797 88.360,190.723 89.545 M378.394 89.050 C 376.155 90.182,376.726 91.866,379.665 92.798 C 380.599 93.094,381.199 92.660,381.570 91.420 C 382.286 89.032,380.729 87.870,378.394 89.050 M227.733 89.495 C 227.039 90.190,226.859 107.553,227.511 111.000 C 228.199 114.639,230.822 117.845,232.413 116.993 C 232.758 116.808,232.800 116.555,232.803 114.643 C 232.804 113.464,232.937 110.970,233.099 109.100 C 233.826 100.666,233.282 96.630,230.934 93.037 C 230.454 92.302,229.766 91.225,229.405 90.644 C 228.629 89.392,228.159 89.069,227.733 89.495 M362.900 89.868 C 361.363 90.579,361.280 91.613,362.706 92.290 C 364.176 92.987,367.138 92.940,368.041 92.205 L 368.500 91.831 367.900 91.197 C 366.654 89.881,364.253 89.243,362.900 89.868 M18.093 91.790 C 16.448 92.457,17.138 95.963,18.894 95.854 C 19.848 95.795,21.492 94.897,21.772 94.282 C 22.405 92.892,19.773 91.109,18.093 91.790 M347.400 91.764 C 344.178 93.224,344.788 96.288,348.229 95.929 C 350.679 95.672,351.258 95.134,350.689 93.642 C 350.031 91.918,348.717 91.167,347.400 91.764 M169.885 92.750 C 165.650 98.970,164.843 102.565,165.789 111.000 C 165.918 112.155,166.063 114.540,166.111 116.300 L 166.197 119.500 166.810 119.755 C 168.163 120.319,170.408 117.655,171.335 114.386 C 171.820 112.678,171.898 93.770,171.426 92.650 C 171.058 91.777,170.524 91.812,169.885 92.750 M33.388 92.778 C 31.509 93.390,30.076 94.912,30.950 95.369 C 33.309 96.603,37.781 95.404,37.132 93.711 C 36.854 92.988,34.527 92.408,33.388 92.778 M0.020 95.117 C 0.031 95.548,0.114 96.125,0.204 96.400 C 0.306 96.711,0.325 96.445,0.256 95.700 C 0.127 94.310,-0.009 93.975,0.020 95.117 M49.030 95.297 C 47.124 97.467,47.930 98.846,51.127 98.882 C 53.539 98.909,54.298 97.895,53.145 96.184 C 51.992 94.474,50.109 94.067,49.030 95.297 M331.400 96.225 C 329.706 96.900,328.572 99.588,329.273 101.266 C 329.987 102.974,332.026 102.576,334.565 100.232 C 336.682 98.278,334.184 95.115,331.400 96.225 M64.673 99.499 C 63.112 100.729,63.144 102.207,64.759 103.523 C 67.764 105.970,69.800 105.804,69.800 103.113 C 69.800 99.951,66.791 97.829,64.673 99.499 M391.200 100.089 C 389.358 100.887,386.616 101.609,382.800 102.300 C 378.934 103.000,376.160 103.730,374.700 104.429 C 374.040 104.746,373.680 104.943,373.900 104.867 C 374.120 104.792,375.155 104.436,376.200 104.076 C 377.245 103.716,380.035 103.057,382.400 102.612 C 387.805 101.593,392.283 100.275,392.715 99.576 C 392.775 99.479,392.796 99.409,392.762 99.420 C 392.728 99.431,392.025 99.732,391.200 100.089 M271.838 102.176 C 269.261 106.761,272.216 114.400,277.142 115.888 C 277.756 116.074,279.266 114.664,279.717 113.483 C 280.681 110.960,278.402 106.458,274.430 103.039 C 272.388 101.282,272.347 101.269,271.838 102.176 M311.819 101.846 C 309.487 102.634,308.340 106.632,309.976 108.269 C 311.855 110.147,318.680 107.527,318.680 104.927 C 318.680 102.902,314.392 100.976,311.819 101.846 M251.276 103.687 C 246.921 105.583,250.941 117.038,256.340 118.118 C 259.762 118.802,258.789 113.099,254.246 105.850 C 252.604 103.229,252.501 103.154,251.276 103.687 M125.199 105.254 C 119.223 110.186,117.311 115.882,120.816 118.311 L 121.578 118.839 122.707 118.322 C 126.660 116.513,129.161 110.303,127.606 106.158 C 126.812 104.042,126.714 104.005,125.199 105.254 M82.909 105.099 C 79.176 106.634,79.489 109.011,83.700 111.102 C 88.095 113.283,91.041 110.972,89.226 106.767 C 88.322 104.672,85.658 103.969,82.909 105.099 M372.093 105.605 C 370.718 106.240,368.904 106.397,362.900 106.402 C 356.643 106.407,355.444 106.541,353.350 107.469 C 352.718 107.749,352.200 108.023,352.200 108.078 C 352.200 108.133,352.627 107.989,353.149 107.758 C 355.372 106.775,355.751 106.731,362.500 106.692 C 369.629 106.651,373.000 106.202,373.000 105.296 C 373.000 105.179,373.070 105.155,372.093 105.605 M144.972 108.160 C 141.044 114.161,139.688 118.780,141.361 120.454 C 143.191 122.283,148.028 117.551,149.293 112.693 C 150.154 109.388,149.269 106.847,147.036 106.210 L 146.372 106.020 144.972 108.160 M292.300 106.387 C 287.382 107.584,287.581 115.743,292.543 116.330 C 294.111 116.516,296.900 115.604,298.986 114.222 C 299.253 114.045,299.793 113.805,300.186 113.690 C 300.881 113.486,300.898 113.456,300.839 112.590 C 300.594 109.007,295.810 105.532,292.300 106.387 M347.324 109.514 C 342.508 110.289,338.306 111.440,336.498 112.481 C 335.795 112.886,335.986 112.828,338.025 112.018 C 340.652 110.974,347.871 109.400,350.031 109.400 C 350.331 109.400,350.632 109.310,350.700 109.200 C 350.857 108.946,350.865 108.945,347.324 109.514 M103.389 109.480 C 100.386 110.628,98.478 112.772,98.095 115.430 C 97.961 116.358,97.961 116.360,98.630 116.506 C 98.999 116.586,99.975 117.047,100.800 117.531 C 106.318 120.766,110.540 118.998,110.154 113.612 C 109.910 110.197,106.679 108.223,103.389 109.480 M269.286 112.179 C 264.896 114.173,266.679 122.200,271.512 122.200 C 274.682 122.200,275.355 118.937,273.080 114.600 C 271.732 112.032,270.850 111.468,269.286 112.179 M246.154 112.720 C 245.134 114.959,249.483 121.800,251.926 121.800 C 254.907 121.800,254.611 120.206,250.882 116.175 C 249.623 114.814,248.294 113.363,247.928 112.950 C 247.136 112.055,246.495 111.972,246.154 112.720 M126.803 115.950 C 123.502 120.429,123.929 125.173,127.614 124.965 C 132.498 124.689,134.024 116.777,129.554 114.910 C 128.206 114.346,127.899 114.462,126.803 115.950 M151.613 115.153 C 151.255 115.326,150.746 115.811,150.482 116.229 C 150.217 116.648,149.026 118.018,147.834 119.274 C 144.687 122.589,144.300 123.750,146.131 124.386 C 147.941 125.015,150.068 123.308,151.690 119.926 C 153.379 116.406,153.345 114.314,151.613 115.153 M328.400 117.300 C 327.685 117.674,327.190 117.981,327.300 117.981 C 327.410 117.981,328.085 117.674,328.800 117.300 C 329.515 116.926,330.010 116.619,329.900 116.619 C 329.790 116.619,329.115 116.926,328.400 117.300 M326.200 118.300 C 325.925 118.457,325.790 118.586,325.900 118.586 C 326.010 118.586,326.325 118.457,326.600 118.300 C 326.875 118.143,327.010 118.014,326.900 118.014 C 326.790 118.014,326.475 118.143,326.200 118.300 M322.342 119.843 C 320.715 120.507,319.416 121.083,319.457 121.123 C 319.534 121.201,325.384 118.882,325.563 118.704 C 325.800 118.467,325.150 118.697,322.342 119.843 M225.779 120.673 C 225.065 121.029,224.456 122.296,223.986 124.400 C 222.824 129.606,222.547 130.605,221.913 131.900 C 221.536 132.670,220.922 133.975,220.549 134.800 C 220.176 135.625,218.757 138.145,217.396 140.400 C 213.784 146.384,212.709 149.187,213.081 151.650 C 213.270 152.902,213.430 152.861,215.127 151.131 C 216.785 149.440,217.701 148.084,220.009 143.900 C 220.919 142.250,222.017 140.365,222.448 139.712 C 222.879 139.058,223.448 138.098,223.711 137.578 C 223.975 137.058,225.267 135.002,226.584 133.008 C 229.880 128.016,230.495 126.193,229.694 123.781 C 229.057 121.864,226.871 120.128,225.779 120.673 M317.500 121.891 C 316.730 122.262,316.156 122.573,316.224 122.583 C 316.292 122.592,317.012 122.291,317.824 121.913 C 318.636 121.535,319.210 121.224,319.100 121.221 C 318.990 121.218,318.270 121.519,317.500 121.891 M314.950 123.014 C 314.538 123.231,314.200 123.454,314.200 123.509 C 314.200 123.598,315.780 122.860,315.983 122.675 C 316.213 122.467,315.613 122.664,314.950 123.014 M170.909 124.210 C 167.868 127.085,168.238 129.330,172.925 136.463 C 175.648 140.607,176.593 142.169,179.338 147.061 C 182.268 152.284,185.231 155.904,185.818 154.978 C 186.896 153.275,185.467 149.281,181.384 142.586 C 180.147 140.559,178.835 138.225,178.468 137.400 C 178.100 136.575,177.537 135.405,177.217 134.800 C 176.522 133.487,176.192 132.385,175.419 128.800 C 174.173 123.020,173.207 122.036,170.909 124.210 M248.673 126.584 C 246.628 127.831,246.089 133.698,247.865 135.367 C 249.839 137.222,254.695 134.783,254.681 131.945 C 254.664 128.537,250.931 125.207,248.673 126.584 M308.921 126.432 C 308.110 126.903,306.000 127.634,302.622 128.614 C 299.309 129.576,296.081 130.748,296.259 130.926 C 296.303 130.969,296.834 130.786,297.440 130.518 C 298.046 130.250,300.242 129.532,302.321 128.922 C 306.653 127.650,310.437 126.223,309.500 126.214 C 309.390 126.213,309.129 126.311,308.921 126.432 M147.848 129.222 C 146.089 130.093,144.367 132.726,144.339 134.586 C 144.296 137.411,149.179 140.008,151.038 138.149 C 154.120 135.067,151.402 127.463,147.848 129.222 M295.350 131.314 C 294.602 131.720,294.648 131.889,295.400 131.500 C 295.730 131.329,296.000 131.147,296.000 131.095 C 296.000 130.966,295.979 130.973,295.350 131.314 M271.997 131.570 C 271.161 132.015,270.453 132.997,270.148 134.137 C 269.966 134.817,269.785 135.036,269.177 135.311 C 264.851 137.261,266.901 143.558,271.557 142.623 C 275.632 141.805,278.384 138.581,277.892 135.205 C 277.455 132.203,274.377 130.306,271.997 131.570 M123.574 134.401 C 121.553 135.469,120.741 137.866,121.413 140.780 C 122.069 143.629,127.644 146.433,130.100 145.149 C 133.080 143.592,132.704 138.686,129.543 137.893 C 129.191 137.805,129.015 137.546,128.827 136.842 C 128.166 134.372,125.752 133.251,123.574 134.401 M242.831 137.150 C 238.251 141.731,239.699 150.015,244.681 147.734 C 248.141 146.150,248.217 141.288,244.849 137.050 C 244.008 135.992,243.988 135.993,242.831 137.150 M154.150 139.796 C 150.372 144.210,151.387 150.800,155.845 150.800 C 159.937 150.800,160.100 143.624,156.097 139.736 C 155.145 138.812,154.988 138.817,154.150 139.796 M203.492 143.861 C 203.428 144.115,203.419 145.443,203.472 146.811 C 203.524 148.180,203.658 152.727,203.770 156.916 C 204.070 168.191,204.490 172.001,206.028 177.400 C 207.064 181.035,207.937 182.858,208.949 183.498 C 210.552 184.513,212.186 186.047,214.535 188.744 C 219.480 194.423,221.671 195.848,226.146 196.295 C 228.678 196.548,229.642 197.931,231.306 203.700 C 232.840 209.017,233.979 210.395,236.840 210.399 C 237.817 210.400,239.648 210.012,239.900 209.749 C 240.037 209.606,239.975 209.587,239.700 209.686 C 235.417 211.243,233.338 209.599,231.585 203.271 C 230.166 198.150,228.697 196.000,226.618 196.000 C 222.753 196.000,219.850 194.186,215.131 188.821 C 212.510 185.843,210.962 184.350,209.550 183.440 C 206.433 181.432,204.560 172.637,204.198 158.300 C 204.092 154.120,203.904 149.763,203.780 148.618 C 203.655 147.466,203.615 145.835,203.691 144.968 C 203.823 143.448,203.728 142.919,203.492 143.861 M112.228 149.200 C 112.228 149.365,112.305 149.680,112.400 149.900 C 112.508 150.152,112.572 150.189,112.572 150.000 C 112.572 149.835,112.495 149.520,112.400 149.300 C 112.292 149.048,112.228 149.011,112.228 149.200 M263.300 151.799 C 262.090 152.005,260.579 152.180,259.942 152.187 C 257.353 152.216,254.889 154.545,255.942 155.967 C 258.510 159.435,267.146 158.625,268.278 154.810 C 269.227 151.615,268.160 150.969,263.300 151.799 M229.788 152.558 C 227.106 153.903,227.984 159.951,230.917 160.336 C 234.306 160.782,237.690 153.995,234.820 152.510 C 234.016 152.095,230.649 152.127,229.788 152.558 M281.300 152.924 C 280.530 153.304,280.125 153.555,280.400 153.481 C 281.000 153.321,282.800 152.433,282.800 152.297 C 282.800 152.175,282.936 152.118,281.300 152.924 M130.972 154.583 C 129.922 155.434,130.782 158.826,132.264 159.683 C 136.700 162.246,145.217 160.125,143.059 156.995 C 142.311 155.909,140.344 154.759,139.500 154.915 C 139.170 154.975,137.640 154.840,136.100 154.614 C 132.552 154.092,131.584 154.086,130.972 154.583 M165.732 154.973 C 163.419 155.160,162.794 156.197,163.460 158.743 C 164.997 164.619,171.556 164.044,170.941 158.087 C 170.664 155.405,169.442 154.674,165.732 154.973 M216.900 161.071 C 214.930 161.581,213.640 162.520,212.902 163.980 C 212.713 164.354,212.163 165.164,211.679 165.780 C 209.739 168.252,210.546 168.337,215.551 166.185 C 219.682 164.409,220.800 163.548,220.800 162.142 C 220.800 161.084,218.884 160.557,216.900 161.071 M179.626 163.605 C 176.633 164.290,178.284 166.606,183.243 168.682 C 188.709 170.970,189.542 170.893,187.379 168.300 C 186.920 167.750,186.422 167.011,186.272 166.657 C 185.678 165.252,183.765 163.936,181.961 163.692 C 181.487 163.627,180.920 163.547,180.700 163.513 C 180.480 163.479,179.997 163.520,179.626 163.605 M245.300 165.869 C 242.795 166.696,241.624 168.086,241.162 170.783 C 240.664 173.686,241.269 173.932,245.105 172.382 L 247.676 171.344 249.735 171.470 C 252.074 171.613,252.136 171.577,252.596 169.833 C 253.383 166.849,249.206 164.580,245.300 165.869 M268.000 168.148 C 265.422 168.988,264.877 169.199,264.483 169.513 C 264.239 169.707,264.390 169.677,264.900 169.431 C 265.340 169.218,266.330 168.887,267.100 168.696 C 267.870 168.505,268.815 168.185,269.200 167.983 C 270.103 167.512,269.845 167.547,268.000 168.148 M149.588 168.460 C 146.812 169.248,145.715 171.219,146.837 173.400 C 147.266 174.233,147.352 174.296,148.000 174.243 C 151.055 173.997,151.613 174.071,154.000 175.044 C 158.146 176.732,158.699 176.442,157.888 173.003 C 157.038 169.397,153.367 167.388,149.588 168.460 M211.450 172.232 C 210.856 172.534,210.857 173.396,211.453 173.956 C 213.178 175.576,217.864 175.499,217.287 173.859 C 216.909 172.785,212.681 171.606,211.450 172.232 M185.100 174.922 C 184.550 175.091,183.743 175.304,183.307 175.395 C 182.117 175.645,181.372 176.805,182.050 177.353 C 182.876 178.021,185.996 177.767,187.235 176.932 C 189.275 175.558,187.741 174.113,185.100 174.922 M226.500 177.667 C 226.170 177.819,225.476 178.398,224.958 178.954 C 222.826 181.243,223.536 182.179,228.250 183.293 C 229.429 183.571,230.861 183.977,231.432 184.194 C 233.404 184.943,235.192 183.497,234.626 181.609 C 233.851 179.020,228.840 176.589,226.500 177.667 M169.315 180.330 C 167.457 180.900,165.095 182.797,164.591 184.123 C 163.910 185.915,165.714 187.627,167.527 186.910 C 167.952 186.741,169.425 186.327,170.800 185.989 C 175.660 184.794,176.320 184.018,174.394 181.765 C 172.986 180.118,171.434 179.680,169.315 180.330 M252.040 183.934 C 251.457 184.210,250.287 184.548,249.440 184.685 C 248.096 184.902,246.200 185.618,246.200 185.907 C 246.200 185.962,246.628 185.793,247.150 185.532 C 247.673 185.270,248.595 185.007,249.200 184.946 C 250.367 184.829,252.266 184.195,252.912 183.706 C 253.441 183.306,253.280 183.348,252.040 183.934 M157.950 198.400 C 158.008 199.445,158.088 200.338,158.128 200.383 C 158.268 200.545,158.175 198.089,158.011 197.300 C 157.901 196.769,157.880 197.138,157.950 198.400 M158.283 204.500 C 158.284 206.590,158.313 207.418,158.349 206.340 C 158.385 205.261,158.385 203.551,158.349 202.540 C 158.313 201.528,158.283 202.410,158.283 204.500 M158.424 209.217 C 158.437 209.703,158.518 210.370,158.605 210.700 C 158.701 211.064,158.720 210.749,158.654 209.900 C 158.531 208.310,158.388 207.888,158.424 209.217 " stroke="none" fill="#b3d023" fill-rule="evenodd"></path><path id="path1" d="M150.907 0.392 C 150.080 1.306,150.909 2.743,153.433 4.770 C 154.350 5.506,156.180 7.007,157.500 8.105 C 160.357 10.482,163.106 12.328,168.500 15.493 C 183.858 24.503,190.617 29.649,193.862 34.800 L 194.177 35.300 193.236 35.318 C 189.451 35.390,186.407 41.096,188.907 43.432 C 189.183 43.689,189.581 44.282,189.792 44.749 L 190.176 45.597 189.607 46.852 C 188.727 48.793,187.709 51.869,187.108 54.400 C 186.807 55.665,186.539 56.724,186.510 56.754 C 186.482 56.783,185.658 56.500,184.680 56.125 C 183.701 55.750,182.383 55.282,181.750 55.085 C 181.118 54.888,180.600 54.648,180.600 54.552 C 180.600 54.455,180.527 54.422,180.437 54.477 C 180.348 54.532,178.705 54.145,176.787 53.615 C 174.869 53.086,172.603 52.490,171.750 52.290 C 170.898 52.090,170.200 51.848,170.200 51.752 C 170.200 51.655,170.118 51.627,170.017 51.689 C 169.917 51.751,168.724 51.542,167.367 51.224 C 164.030 50.442,160.861 49.865,156.360 49.220 C 154.285 48.922,152.658 48.602,152.744 48.507 C 152.830 48.413,152.786 48.401,152.647 48.481 C 152.352 48.652,149.171 48.409,149.285 48.225 C 149.327 48.156,148.853 48.100,148.231 48.099 C 147.609 48.099,144.940 47.919,142.300 47.699 C 136.374 47.206,117.939 47.123,111.900 47.561 C 100.329 48.402,85.284 50.552,77.960 52.412 C 77.113 52.627,75.358 52.984,74.060 53.204 C 53.955 56.615,21.644 70.092,8.580 80.516 C -1.713 88.728,-2.876 98.171,5.875 102.479 C 9.194 104.113,10.149 104.391,16.700 105.628 C 21.237 106.484,23.753 107.228,25.799 108.319 C 27.909 109.444,29.762 109.674,35.500 109.524 C 42.119 109.351,44.636 109.774,47.182 111.488 C 48.033 112.061,48.474 112.189,50.629 112.490 C 58.614 113.605,63.792 115.532,68.200 119.028 C 69.114 119.753,71.744 120.966,76.800 122.995 C 81.923 125.051,84.909 126.461,87.396 127.998 C 89.909 129.551,91.424 130.162,96.371 131.616 C 102.584 133.442,103.414 133.852,106.257 136.502 C 107.868 138.002,110.014 140.596,109.652 140.603 C 109.569 140.605,109.599 140.672,109.720 140.753 C 110.062 140.981,110.730 142.942,111.490 145.952 C 111.871 147.463,112.371 149.240,112.600 149.900 C 112.829 150.560,113.037 151.193,113.063 151.306 C 113.448 152.985,117.167 156.199,118.727 156.200 C 119.475 156.200,122.051 160.036,124.017 164.078 C 126.256 168.681,129.314 171.400,132.253 171.400 C 134.478 171.400,138.784 175.655,140.979 180.023 C 141.493 181.046,141.645 181.302,142.650 182.834 C 144.325 185.388,146.630 187.001,149.200 187.416 C 151.671 187.815,153.943 189.001,155.073 190.482 C 155.359 190.858,155.734 191.305,155.904 191.476 C 157.439 193.010,158.161 196.628,158.395 203.958 C 158.684 213.015,158.503 212.593,162.104 212.597 C 165.484 212.601,166.208 211.751,167.806 205.906 C 169.270 200.550,170.464 198.949,173.152 198.737 C 177.025 198.430,179.604 196.818,183.578 192.217 C 186.147 189.243,188.821 186.630,189.968 185.972 C 192.763 184.368,194.671 175.012,195.000 161.300 C 195.102 157.010,195.288 152.450,195.413 151.166 C 195.796 147.215,195.132 143.184,193.216 137.816 C 192.767 136.560,192.402 135.480,192.405 135.416 C 192.407 135.352,193.154 136.740,194.064 138.500 C 195.633 141.536,198.695 146.637,199.688 147.870 L 200.147 148.440 201.472 146.744 C 202.200 145.810,203.026 144.654,203.306 144.174 L 203.816 143.300 203.685 144.918 C 203.613 145.807,203.656 147.472,203.780 148.618 C 203.904 149.763,204.092 154.120,204.198 158.300 C 204.560 172.637,206.433 181.432,209.550 183.440 C 210.962 184.350,212.510 185.843,215.131 188.821 C 219.850 194.186,222.753 196.000,226.618 196.000 C 228.697 196.000,230.166 198.150,231.585 203.271 C 233.223 209.185,234.686 210.646,238.300 209.980 C 238.960 209.858,239.659 209.749,239.854 209.737 C 240.560 209.692,240.989 206.418,241.000 201.000 C 241.021 190.539,243.578 185.621,249.489 184.674 C 253.756 183.991,255.111 182.712,259.422 175.302 C 261.709 171.369,264.090 169.287,267.300 168.411 C 271.576 167.244,272.937 165.901,275.871 159.954 C 278.221 155.190,279.366 153.780,281.709 152.766 C 284.864 151.400,286.026 149.553,287.599 143.400 C 289.012 137.876,289.578 136.788,292.580 133.841 C 295.419 131.053,296.775 130.329,302.000 128.808 C 307.552 127.193,308.912 126.634,312.200 124.615 C 314.529 123.185,316.806 122.120,322.467 119.815 C 328.252 117.460,330.349 116.455,331.570 115.452 C 335.310 112.380,340.277 110.570,348.200 109.390 C 349.795 109.152,351.130 108.878,351.167 108.779 C 351.203 108.681,351.361 108.600,351.517 108.600 C 351.673 108.600,351.800 108.515,351.800 108.410 C 351.800 108.092,354.320 106.996,355.751 106.693 C 356.739 106.483,358.651 106.406,362.900 106.402 C 369.915 106.396,370.617 106.298,373.600 104.914 C 376.124 103.743,378.391 103.099,382.800 102.300 C 393.837 100.301,398.098 97.482,398.888 91.660 C 400.041 83.149,386.965 72.283,363.600 62.338 C 352.046 57.420,332.762 51.384,324.500 50.099 C 323.510 49.945,321.350 49.503,319.700 49.116 C 297.752 43.973,267.352 42.865,243.200 46.326 C 232.990 47.790,216.686 51.917,212.327 54.142 C 211.574 54.526,211.541 54.469,211.010 51.900 C 210.760 50.690,210.246 48.671,209.866 47.414 C 209.224 45.285,209.201 45.115,209.527 44.933 C 212.671 43.173,210.371 35.057,206.711 34.993 C 206.345 34.986,206.366 34.931,206.900 34.488 C 211.245 30.880,218.693 27.315,231.500 22.712 C 243.279 18.479,244.127 18.118,251.895 14.024 C 255.581 12.081,256.800 11.093,256.800 10.048 C 256.800 8.114,254.569 8.686,251.771 11.338 C 248.183 14.739,243.813 16.920,234.100 20.159 C 217.612 25.657,209.818 29.334,204.748 34.006 L 203.196 35.436 199.790 35.446 L 196.384 35.456 195.485 33.997 C 191.821 28.054,185.624 23.320,170.100 14.602 C 161.415 9.725,157.712 6.808,155.094 2.780 C 153.408 0.188,151.881 -0.684,150.907 0.392 M207.795 46.700 C 211.015 56.765,211.499 62.710,209.466 67.241 C 208.806 68.711,208.917 68.938,208.006 64.275 C 205.872 53.352,205.345 46.695,206.427 44.321 C 206.760 43.589,206.848 43.740,207.795 46.700 M194.426 44.850 C 194.936 46.058,194.764 51.982,194.123 55.300 C 193.102 60.583,190.285 71.800,189.978 71.800 C 189.911 71.800,189.581 71.103,189.245 70.250 C 187.077 64.753,188.125 57.700,192.710 46.936 C 193.982 43.950,194.024 43.899,194.426 44.850 M264.300 48.075 C 265.295 48.543,268.913 51.307,269.727 52.221 C 270.696 53.308,270.267 54.384,268.734 54.710 C 268.385 54.785,267.605 55.079,267.000 55.365 C 263.554 56.994,260.460 55.201,260.062 51.344 C 259.748 48.301,261.655 46.830,264.300 48.075 M284.713 49.098 C 288.408 50.905,289.969 54.784,287.531 56.097 C 285.843 57.006,279.400 52.088,279.400 49.892 C 279.400 48.413,282.398 47.965,284.713 49.098 M249.287 49.195 C 250.433 49.631,249.006 51.594,247.003 52.338 C 244.490 53.272,243.592 54.547,243.182 57.764 C 242.741 61.222,241.936 62.104,239.235 62.092 C 233.482 62.067,231.255 57.101,235.769 54.366 C 236.171 54.123,236.947 53.527,237.493 53.042 C 240.075 50.752,247.237 48.415,249.287 49.195 M230.200 50.199 C 230.200 50.308,229.525 50.897,228.699 51.507 C 227.770 52.194,227.094 52.862,226.924 53.259 C 226.556 54.118,225.793 54.805,223.576 56.271 C 221.092 57.913,221.138 58.297,223.866 58.690 C 224.496 58.781,224.795 58.911,224.726 59.065 C 222.570 63.892,222.048 65.795,222.319 67.843 C 222.393 68.403,222.325 68.943,222.124 69.400 C 221.920 69.863,221.813 69.969,221.808 69.713 C 221.785 68.564,219.861 67.939,219.000 68.800 C 217.622 70.178,219.805 72.349,221.261 71.050 C 221.637 70.714,221.649 70.716,221.542 71.100 C 221.481 71.320,221.291 72.003,221.119 72.618 C 220.337 75.424,219.257 75.433,217.477 72.650 C 217.076 72.024,216.237 70.969,215.613 70.306 C 214.988 69.643,214.064 68.605,213.560 68.000 L 212.643 66.900 212.415 63.108 C 212.289 61.022,212.098 58.691,211.990 57.928 C 211.882 57.165,211.817 56.527,211.846 56.512 C 211.876 56.496,212.338 56.372,212.873 56.236 C 213.409 56.100,215.254 55.346,216.973 54.559 C 218.693 53.773,220.865 52.880,221.800 52.575 C 222.735 52.271,224.805 51.567,226.400 51.011 C 229.269 50.012,230.200 49.813,230.200 50.199 M299.673 50.476 C 302.850 51.803,304.182 57.486,301.519 58.355 C 299.169 59.122,296.576 56.654,296.547 53.623 C 296.522 50.916,297.755 49.674,299.673 50.476 M137.799 50.968 C 140.832 54.001,136.801 60.081,132.800 58.507 C 132.415 58.356,131.515 58.016,130.800 57.751 C 128.494 56.899,128.048 56.434,128.677 55.540 C 131.142 52.036,136.288 49.457,137.799 50.968 M118.408 51.650 C 119.931 52.418,119.511 53.758,117.036 56.027 C 113.636 59.143,111.254 59.844,110.303 58.007 C 108.644 54.797,114.907 49.885,118.408 51.650 M153.004 52.101 C 156.215 52.776,159.581 54.229,161.066 55.580 C 161.525 55.997,162.407 56.660,163.026 57.052 C 167.415 59.830,165.511 64.510,159.889 64.765 C 156.972 64.897,156.088 64.018,155.610 60.513 C 155.160 57.212,153.520 55.000,151.523 55.000 C 151.011 55.000,149.000 53.005,149.000 52.497 C 149.000 51.725,150.510 51.576,153.004 52.101 M173.100 53.906 C 174.530 54.421,176.240 54.999,176.900 55.190 C 178.197 55.565,179.437 56.075,182.400 57.454 C 183.445 57.940,184.756 58.488,185.314 58.673 L 186.328 59.008 186.151 60.354 C 186.054 61.094,185.970 63.527,185.964 65.760 L 185.953 69.821 184.977 70.990 C 183.731 72.481,183.746 72.610,185.043 71.585 C 185.617 71.131,186.107 70.836,186.131 70.930 C 186.156 71.023,186.317 72.094,186.489 73.308 C 186.847 75.840,187.694 79.439,188.584 82.218 L 189.197 84.133 188.607 86.716 C 187.111 93.270,186.595 97.524,186.463 104.400 C 186.325 111.530,186.983 118.671,188.097 122.154 C 188.323 122.861,188.421 124.390,188.485 128.200 C 188.532 131.005,188.633 134.705,188.711 136.422 C 189.000 142.828,187.829 139.854,186.694 131.300 C 186.001 126.080,184.874 118.806,184.292 115.800 C 184.026 114.425,183.624 111.860,183.399 110.100 C 183.175 108.340,182.673 104.965,182.285 102.600 C 181.898 100.235,181.264 96.185,180.878 93.600 C 180.491 91.015,180.038 88.000,179.871 86.900 C 179.284 83.039,179.640 79.460,180.905 76.500 C 181.033 76.202,180.887 76.265,180.331 76.750 C 178.940 77.963,178.397 77.557,177.538 74.665 L 177.240 73.663 178.188 73.754 C 179.728 73.902,180.524 72.520,179.585 71.327 C 178.866 70.412,176.810 70.798,176.797 71.850 C 176.795 72.016,176.730 72.000,176.602 71.800 C 176.497 71.635,176.464 71.048,176.528 70.494 C 176.725 68.799,176.277 66.712,175.177 64.200 C 174.624 62.935,174.130 61.806,174.080 61.692 C 174.027 61.570,174.545 61.388,175.325 61.254 C 177.560 60.871,177.694 60.326,175.816 59.254 C 173.653 58.020,172.358 56.956,171.980 56.102 C 171.750 55.581,171.305 55.058,170.819 54.736 C 167.388 52.466,168.239 52.156,173.100 53.906 M100.907 53.239 C 102.642 54.030,102.674 57.951,100.961 59.897 C 99.146 61.959,96.272 61.802,95.903 59.620 C 95.349 56.338,98.601 52.189,100.907 53.239 M321.938 55.831 C 324.986 56.972,326.910 60.591,325.544 62.617 C 323.565 65.555,320.007 63.777,318.418 59.056 C 317.280 55.673,318.507 54.548,321.938 55.831 M260.200 58.164 C 260.200 58.911,260.456 60.201,260.911 61.756 C 261.900 65.129,261.842 65.979,260.600 66.360 C 256.417 67.642,252.592 65.608,252.604 62.109 C 252.616 58.994,254.902 57.033,258.550 57.010 L 260.200 57.000 260.200 58.164 M80.335 58.717 C 82.346 60.728,77.824 67.863,75.118 66.948 C 71.276 65.648,72.512 60.371,77.052 58.684 C 78.757 58.051,79.678 58.060,80.335 58.717 M282.650 59.536 C 285.179 60.132,285.936 61.859,285.090 65.108 C 284.414 67.701,283.612 68.398,281.300 68.398 C 277.715 68.398,275.214 64.839,276.476 61.534 C 277.343 59.266,279.096 58.698,282.650 59.536 M341.820 59.452 C 343.023 60.250,343.917 62.814,343.102 63.127 C 342.291 63.438,338.997 62.085,338.333 61.167 C 337.195 59.593,339.975 58.225,341.820 59.452 M142.806 60.118 C 146.073 61.147,147.318 65.468,145.039 67.868 C 143.937 69.030,143.118 69.300,140.700 69.300 C 136.962 69.300,136.630 68.787,137.816 64.835 C 138.168 63.661,138.500 62.052,138.554 61.261 L 138.651 59.821 139.376 59.742 C 140.384 59.632,141.736 59.780,142.806 60.118 M302.700 60.936 C 310.358 62.393,314.296 65.569,311.800 68.277 C 311.360 68.754,311.000 69.297,311.000 69.482 C 311.000 72.083,306.347 71.528,303.378 68.573 C 300.891 66.097,298.777 61.964,299.402 60.796 C 299.622 60.384,299.852 60.394,302.700 60.936 M120.317 62.219 C 121.665 62.635,122.601 64.245,122.598 66.144 C 122.589 71.264,115.624 73.369,113.998 68.743 C 112.674 64.975,113.440 62.959,116.443 62.312 C 117.354 62.115,118.190 61.926,118.300 61.891 C 118.548 61.812,119.499 61.967,120.317 62.219 M60.007 62.304 C 61.751 63.205,60.584 64.821,57.475 65.809 C 55.782 66.348,55.400 66.263,55.400 65.349 C 55.400 62.986,58.002 61.267,60.007 62.304 M99.497 63.790 C 99.935 65.170,97.507 69.566,95.084 71.780 C 92.009 74.590,87.800 74.839,87.800 72.210 C 87.800 71.984,87.711 71.800,87.601 71.800 C 87.492 71.800,87.124 71.418,86.783 70.950 C 85.521 69.218,86.395 67.567,89.388 66.027 C 93.032 64.154,99.180 62.793,99.497 63.790 M238.200 63.843 C 240.409 64.495,241.979 67.587,240.324 68.027 C 238.872 68.412,238.114 69.832,237.818 72.721 C 237.525 75.576,237.307 75.873,236.093 75.077 L 235.601 74.755 235.728 76.835 C 235.811 78.181,235.731 80.413,235.503 83.166 C 235.053 88.589,235.155 92.466,235.804 94.536 C 236.954 98.208,234.102 96.878,230.749 92.179 C 228.165 88.558,227.372 84.651,228.560 81.400 C 228.781 80.795,229.020 79.525,229.089 78.578 C 229.399 74.374,231.064 70.400,232.515 70.400 C 232.934 70.400,232.875 70.251,232.097 69.342 C 229.255 66.022,233.283 62.393,238.200 63.843 M336.215 66.015 C 336.750 66.550,336.459 67.050,335.125 67.881 L 334.192 68.462 333.712 68.011 C 332.284 66.670,332.732 65.600,334.722 65.600 C 335.546 65.600,335.898 65.698,336.215 66.015 M361.526 66.936 C 363.263 68.036,363.981 68.781,364.728 70.256 C 365.992 72.749,365.733 73.624,364.080 72.442 C 363.651 72.135,362.887 71.645,362.383 71.353 C 360.571 70.303,358.400 67.569,358.400 66.336 C 358.400 65.353,359.299 65.525,361.526 66.936 M164.812 66.522 C 167.706 67.382,168.506 69.721,166.709 72.074 L 166.030 72.964 166.627 73.211 C 168.191 73.859,169.400 77.004,169.798 81.463 C 169.888 82.473,170.147 83.795,170.374 84.400 C 171.561 87.564,170.546 91.671,167.627 95.523 C 164.162 100.094,162.106 100.679,163.194 96.784 C 163.821 94.542,163.911 91.701,163.492 87.400 C 163.293 85.365,163.133 82.281,163.136 80.546 C 163.140 77.669,163.113 77.416,162.820 77.672 C 161.664 78.684,161.327 78.269,161.024 75.458 C 160.690 72.369,159.919 70.974,158.372 70.664 C 156.746 70.339,158.636 67.004,160.768 66.436 C 161.909 66.133,163.623 66.169,164.812 66.522 M216.150 71.416 C 218.566 74.381,219.219 76.289,219.222 80.400 C 219.223 82.505,218.802 86.674,218.500 87.549 C 218.452 87.686,218.272 88.901,218.099 90.249 C 217.926 91.597,217.388 95.220,216.904 98.300 C 216.012 103.976,215.531 107.324,215.295 109.500 C 215.223 110.160,215.000 111.510,214.799 112.500 C 214.308 114.912,213.150 122.443,212.400 128.100 C 211.130 137.677,209.960 140.607,210.278 133.414 C 210.430 129.994,210.422 130.039,211.567 125.600 C 213.155 119.443,213.706 114.012,213.537 106.200 C 213.417 100.637,213.267 98.927,212.077 89.502 L 211.345 83.705 211.777 79.302 C 212.108 75.934,212.475 70.897,212.597 68.034 C 212.609 67.767,215.140 70.176,216.150 71.416 M65.038 68.607 C 66.188 68.927,66.196 70.017,65.057 71.048 C 64.691 71.380,64.626 71.366,63.587 70.745 C 62.194 69.913,62.035 69.059,63.200 68.661 C 64.082 68.361,64.144 68.359,65.038 68.607 M40.457 69.059 C 40.786 69.917,39.005 72.536,37.221 73.818 C 33.920 76.191,33.397 76.401,33.404 75.350 C 33.415 73.797,34.915 71.550,36.748 70.342 C 39.095 68.796,40.208 68.411,40.457 69.059 M253.154 69.310 C 255.418 70.255,255.925 71.840,255.620 77.013 C 255.566 77.930,255.901 79.055,258.262 85.900 C 260.601 92.681,259.725 97.352,255.669 99.729 L 254.778 100.251 253.939 99.877 C 251.842 98.943,249.386 95.668,248.407 92.500 C 247.033 88.054,248.202 82.435,250.648 81.724 C 253.157 80.994,253.013 79.913,249.928 76.316 C 247.190 73.123,246.525 71.400,247.518 70.070 C 248.252 69.086,251.552 68.640,253.154 69.310 M270.430 69.900 C 270.430 70.004,270.333 70.122,270.215 70.162 C 270.097 70.201,270.000 70.083,270.000 69.900 C 270.000 69.717,270.097 69.599,270.215 69.638 C 270.333 69.678,270.430 69.796,270.430 69.900 M271.814 71.517 C 274.850 72.401,279.535 76.112,281.592 79.263 C 282.036 79.943,282.863 81.130,283.430 81.900 C 286.967 86.708,286.096 90.671,280.567 94.925 C 279.210 95.969,279.240 95.967,277.845 95.169 C 267.112 89.028,261.911 68.631,271.814 71.517 M150.148 72.033 C 152.685 72.672,152.232 75.216,148.888 79.100 C 145.835 82.647,145.712 84.093,148.426 84.527 C 150.467 84.854,151.673 90.505,150.598 94.706 C 149.762 97.978,147.531 101.212,145.258 102.449 L 144.272 102.986 143.438 102.573 C 139.217 100.484,138.253 95.431,140.722 88.327 C 143.120 81.428,143.255 80.956,143.192 79.700 C 142.836 72.645,144.647 70.648,150.148 72.033 M348.444 72.744 C 352.391 74.593,356.538 78.420,356.098 79.806 C 355.825 80.665,353.583 82.000,352.413 82.000 C 348.476 82.000,342.186 74.442,344.335 72.293 C 344.867 71.761,346.799 71.973,348.444 72.744 M128.800 72.700 C 128.800 72.865,128.715 73.000,128.612 73.000 C 128.360 73.000,128.179 72.688,128.339 72.528 C 128.564 72.303,128.800 72.391,128.800 72.700 M182.607 73.611 C 181.726 74.669,180.603 76.445,181.158 75.900 C 181.634 75.433,183.800 72.687,183.800 72.550 C 183.800 72.243,183.590 72.430,182.607 73.611 M293.857 73.532 C 298.742 74.968,304.592 80.039,305.541 83.660 C 306.192 86.141,305.068 89.765,303.078 91.599 L 302.150 92.454 300.715 92.333 C 294.550 91.812,289.905 87.118,286.266 77.732 L 285.580 75.964 286.106 75.274 C 287.678 73.214,290.565 72.565,293.857 73.532 M130.066 74.273 C 135.980 76.744,129.916 92.642,121.016 98.002 L 119.732 98.776 118.825 98.138 C 113.322 94.264,111.911 89.720,114.902 85.500 C 115.292 84.950,116.101 83.761,116.701 82.858 C 120.483 77.165,126.988 72.987,130.066 74.273 M54.769 75.680 C 55.965 78.142,50.548 84.539,46.921 84.948 C 45.221 85.140,42.800 83.749,42.800 82.581 C 42.800 79.222,53.495 73.057,54.769 75.680 M332.725 75.098 C 334.334 75.770,339.521 79.802,340.209 80.914 C 341.012 82.214,339.876 84.100,337.651 85.163 C 335.648 86.120,331.543 82.674,330.229 78.932 C 329.101 75.721,330.195 74.041,332.725 75.098 M317.851 75.493 C 323.202 76.627,327.621 82.387,326.012 86.129 C 323.777 91.322,316.649 90.409,312.091 84.345 C 308.423 79.466,309.056 76.182,313.799 75.492 C 316.070 75.161,316.283 75.161,317.851 75.493 M110.645 76.447 C 111.539 76.824,113.200 78.351,113.200 78.797 C 113.200 79.140,111.808 82.583,110.887 84.522 C 107.715 91.190,102.763 95.200,97.697 95.200 C 95.342 95.200,93.194 91.772,93.204 88.032 C 93.223 81.697,104.818 73.995,110.645 76.447 M364.676 76.872 C 365.433 77.327,366.443 77.913,366.920 78.174 C 368.424 78.995,369.800 80.628,369.800 81.591 C 369.800 84.511,365.193 82.835,362.617 78.978 C 360.644 76.023,361.614 75.030,364.676 76.872 M380.977 77.088 C 382.640 77.948,384.843 82.877,383.960 83.760 C 382.418 85.302,379.400 82.069,379.400 78.875 C 379.400 77.111,379.908 76.536,380.977 77.088 M68.646 78.158 C 70.280 79.560,67.823 85.034,64.561 87.260 C 62.672 88.550,61.902 88.620,60.452 87.635 C 57.461 85.604,57.608 84.408,61.211 81.478 C 65.463 78.020,67.451 77.132,68.646 78.158 M86.781 78.713 C 91.462 80.103,88.374 88.052,81.826 91.468 C 75.120 94.966,69.661 88.643,74.299 82.752 C 77.329 78.903,82.159 77.340,86.781 78.713 M37.164 79.658 C 37.328 81.090,34.579 84.480,32.348 85.594 C 28.585 87.475,27.700 83.999,31.350 81.671 C 31.982 81.267,32.770 80.751,33.100 80.524 C 35.465 78.899,37.038 78.563,37.164 79.658 M19.365 80.900 C 20.108 83.139,18.520 86.416,16.437 86.945 C 14.382 87.467,14.099 86.237,15.590 83.259 C 17.198 80.047,18.759 79.072,19.365 80.900 M191.278 90.100 C 191.450 91.530,191.999 96.750,192.496 101.700 C 194.467 121.314,196.068 129.400,199.540 137.269 C 200.458 139.350,200.362 139.336,201.474 137.550 C 206.351 129.717,208.165 121.466,209.201 102.400 C 209.425 98.275,209.696 93.955,209.804 92.800 C 209.912 91.645,210.000 90.498,210.000 90.250 C 210.000 90.002,210.090 89.800,210.200 89.800 C 210.316 89.800,210.402 90.453,210.404 91.350 C 210.407 92.203,210.543 94.835,210.707 97.200 C 212.218 119.009,209.604 130.826,200.872 141.650 C 199.527 143.317,199.690 143.344,198.462 141.250 C 192.122 130.436,189.785 117.864,190.399 97.884 C 190.585 91.826,190.805 87.337,190.911 87.445 C 190.940 87.475,191.105 88.670,191.278 90.100 M381.309 89.091 C 382.062 89.843,381.836 91.721,380.886 92.613 C 380.150 93.305,377.349 92.161,377.071 91.057 C 376.645 89.359,380.014 87.796,381.309 89.091 M229.405 90.644 C 229.766 91.225,230.454 92.302,230.934 93.037 C 233.282 96.630,233.826 100.666,233.099 109.100 C 232.937 110.970,232.804 113.464,232.803 114.643 C 232.799 117.565,232.126 117.993,230.225 116.284 C 227.596 113.921,227.246 112.135,227.166 100.700 C 227.082 88.727,227.382 87.381,229.405 90.644 M366.514 90.159 C 366.947 90.382,367.570 90.849,367.900 91.197 L 368.500 91.831 368.041 92.205 C 366.698 93.299,362.352 92.791,361.750 91.469 C 361.073 89.985,364.398 89.071,366.514 90.159 M19.820 91.831 C 22.221 92.645,22.571 94.208,20.592 95.285 C 18.530 96.407,17.423 95.886,17.242 93.709 C 17.095 91.935,18.059 91.233,19.820 91.831 M349.780 92.150 C 350.416 92.787,351.105 94.439,350.927 94.901 C 350.416 96.234,345.944 96.312,345.399 94.998 C 344.551 92.950,348.206 90.574,349.780 92.150 M171.426 92.650 C 171.898 93.770,171.820 112.678,171.335 114.386 C 170.408 117.655,168.163 120.319,166.810 119.755 L 166.197 119.500 166.111 116.300 C 166.063 114.540,165.918 112.155,165.789 111.000 C 164.979 103.780,165.650 99.416,168.190 95.382 C 170.565 91.609,170.876 91.347,171.426 92.650 M36.400 93.100 C 38.739 94.309,35.489 96.417,32.300 95.759 C 30.409 95.368,30.210 95.047,31.250 94.063 C 32.765 92.629,34.766 92.255,36.400 93.100 M52.016 95.055 C 54.580 96.783,54.086 98.915,51.127 98.882 C 48.557 98.853,47.737 98.268,48.182 96.782 C 48.783 94.777,50.473 94.015,52.016 95.055 M334.192 96.524 C 335.662 97.761,335.796 99.096,334.565 100.232 C 332.026 102.576,329.987 102.974,329.273 101.266 C 328.010 98.244,331.844 94.548,334.192 96.524 M67.792 99.296 C 70.286 100.586,70.560 105.331,68.136 105.240 C 66.798 105.190,63.781 103.147,63.522 102.117 C 63.015 100.098,65.793 98.262,67.792 99.296 M274.430 103.039 C 278.402 106.458,280.681 110.960,279.717 113.483 C 279.266 114.664,277.756 116.074,277.142 115.888 C 272.216 114.400,269.261 106.761,271.838 102.176 C 272.347 101.269,272.388 101.282,274.430 103.039 M316.210 102.260 C 318.893 103.466,319.385 105.023,317.590 106.626 C 314.058 109.781,309.552 109.792,309.250 106.648 C 308.867 102.663,312.297 100.500,316.210 102.260 M254.246 105.850 C 258.789 113.099,259.762 118.802,256.340 118.118 C 250.941 117.038,246.921 105.583,251.276 103.687 C 252.501 103.154,252.604 103.229,254.246 105.850 M127.606 106.158 C 129.161 110.303,126.660 116.513,122.707 118.322 L 121.578 118.839 120.816 118.311 C 117.311 115.882,119.223 110.186,125.199 105.254 C 126.714 104.005,126.812 104.042,127.606 106.158 M87.349 104.908 C 90.086 106.051,90.686 110.445,88.265 111.617 C 85.908 112.758,80.309 110.089,80.309 107.824 C 80.309 105.635,84.718 103.808,87.349 104.908 M148.200 106.761 C 151.150 108.898,149.122 116.503,144.743 119.726 C 142.934 121.058,142.137 121.229,141.361 120.454 C 139.688 118.780,141.044 114.161,144.972 108.160 L 146.372 106.020 147.036 106.210 C 147.401 106.314,147.925 106.562,148.200 106.761 M294.576 106.395 C 297.759 106.999,300.652 109.861,300.839 112.590 C 300.898 113.456,300.881 113.486,300.186 113.690 C 299.793 113.805,299.253 114.045,298.986 114.222 C 293.989 117.531,289.987 116.922,288.906 112.688 C 287.905 108.768,290.704 105.661,294.576 106.395 M108.154 109.846 C 111.070 111.776,110.808 117.417,107.738 118.811 C 106.021 119.590,103.528 119.131,100.800 117.531 C 99.975 117.047,98.999 116.586,98.630 116.506 C 96.871 116.122,99.220 111.516,101.863 110.168 C 104.164 108.994,106.673 108.865,108.154 109.846 M271.686 112.550 C 273.106 114.046,274.400 117.143,274.400 119.043 C 274.400 123.669,268.511 123.222,267.086 118.488 C 265.872 114.453,269.298 110.032,271.686 112.550 M247.928 112.950 C 248.294 113.363,249.623 114.814,250.882 116.175 C 254.165 119.724,254.683 120.998,253.089 121.604 C 250.633 122.538,247.512 119.320,246.266 114.567 C 245.668 112.289,246.568 111.414,247.928 112.950 M129.554 114.910 C 134.024 116.777,132.498 124.689,127.614 124.965 C 123.929 125.173,123.502 120.429,126.803 115.950 C 127.899 114.462,128.206 114.346,129.554 114.910 M152.883 115.502 C 153.702 118.766,148.742 125.293,146.131 124.386 C 144.300 123.750,144.687 122.589,147.834 119.274 C 149.026 118.018,150.217 116.648,150.482 116.229 C 151.302 114.930,152.638 114.525,152.883 115.502 M228.416 121.797 C 231.003 124.384,230.583 126.952,226.584 133.008 C 225.267 135.002,223.975 137.058,223.711 137.578 C 223.448 138.098,222.879 139.058,222.448 139.712 C 222.017 140.365,220.919 142.250,220.009 143.900 C 217.701 148.084,216.785 149.440,215.127 151.131 C 213.430 152.861,213.270 152.902,213.081 151.650 C 212.709 149.187,213.784 146.384,217.396 140.400 C 218.757 138.145,220.176 135.625,220.549 134.800 C 220.922 133.975,221.536 132.670,221.913 131.900 C 222.547 130.605,222.824 129.606,223.986 124.400 C 224.899 120.309,226.177 119.558,228.416 121.797 M173.542 123.502 C 174.132 123.915,174.729 125.600,175.419 128.800 C 176.192 132.385,176.522 133.487,177.217 134.800 C 177.537 135.405,178.100 136.575,178.468 137.400 C 178.835 138.225,180.147 140.559,181.384 142.586 C 185.467 149.281,186.896 153.275,185.818 154.978 C 185.231 155.904,182.268 152.284,179.338 147.061 C 176.593 142.169,175.648 140.607,172.925 136.463 C 169.880 131.830,169.182 130.413,169.048 128.592 C 168.828 125.597,171.772 122.262,173.542 123.502 M251.499 126.689 C 255.050 128.770,255.691 132.845,252.782 134.844 C 249.026 137.425,246.625 135.921,246.835 131.118 C 247.007 127.165,249.032 125.243,251.499 126.689 M149.992 129.096 C 152.441 130.362,153.102 136.085,151.038 138.149 C 149.179 140.008,144.296 137.411,144.339 134.586 C 144.385 131.515,147.959 128.045,149.992 129.096 M275.156 131.511 C 278.551 132.928,278.955 138.218,275.844 140.496 C 272.503 142.942,269.906 143.359,268.068 141.745 C 265.973 139.906,266.562 136.489,269.177 135.311 C 269.785 135.036,269.966 134.817,270.148 134.137 C 270.798 131.708,272.940 130.585,275.156 131.511 M127.000 134.300 C 127.799 134.713,128.529 135.729,128.827 136.842 C 129.015 137.546,129.191 137.805,129.543 137.893 C 132.704 138.686,133.080 143.592,130.100 145.149 C 127.644 146.433,122.069 143.629,121.413 140.780 C 120.384 136.317,123.627 132.556,127.000 134.300 M244.849 137.050 C 248.217 141.288,248.141 146.150,244.681 147.734 C 239.699 150.015,238.251 141.731,242.831 137.150 C 243.988 135.993,244.008 135.992,244.849 137.050 M156.097 139.736 C 160.100 143.624,159.937 150.800,155.845 150.800 C 151.387 150.800,150.372 144.210,154.150 139.796 C 154.988 138.817,155.145 138.812,156.097 139.736 M268.230 151.987 C 268.970 152.901,268.432 155.446,267.266 156.545 C 264.792 158.878,257.836 158.524,255.942 155.967 C 254.889 154.545,257.353 152.216,259.942 152.187 C 260.579 152.180,262.090 152.005,263.300 151.799 C 266.175 151.308,267.728 151.367,268.230 151.987 M234.820 152.510 C 237.690 153.995,234.306 160.782,230.917 160.336 C 227.984 159.951,227.106 153.903,229.788 152.558 C 230.649 152.127,234.016 152.095,234.820 152.510 M136.100 154.614 C 137.640 154.840,139.170 154.975,139.500 154.915 C 140.344 154.759,142.311 155.909,143.059 156.995 C 145.217 160.125,136.700 162.246,132.264 159.683 C 131.291 159.121,130.584 157.591,130.531 155.933 C 130.472 154.087,131.255 153.902,136.100 154.614 M169.620 155.414 C 172.131 157.202,170.867 163.000,167.967 163.000 C 164.839 163.000,161.943 157.846,163.788 155.564 C 164.463 154.730,168.513 154.626,169.620 155.414 M220.325 161.298 C 221.184 161.861,220.775 163.231,219.423 164.323 C 218.758 164.860,212.432 167.588,211.501 167.739 C 210.493 167.902,210.556 167.211,211.679 165.780 C 212.163 165.164,212.713 164.354,212.902 163.980 C 214.141 161.527,218.352 160.005,220.325 161.298 M181.961 163.692 C 183.765 163.936,185.678 165.252,186.272 166.657 C 186.422 167.011,186.920 167.750,187.379 168.300 C 189.542 170.893,188.709 170.970,183.243 168.682 C 179.913 167.288,178.592 166.335,178.283 165.103 C 178.055 164.196,179.400 163.311,180.700 163.513 C 180.920 163.547,181.487 163.627,181.961 163.692 M250.725 166.153 C 252.361 167.005,253.007 168.275,252.596 169.833 C 252.136 171.577,252.074 171.613,249.735 171.470 L 247.676 171.344 245.105 172.382 C 241.269 173.932,240.664 173.686,241.162 170.783 C 241.624 168.086,242.795 166.696,245.300 165.869 C 246.557 165.454,249.698 165.618,250.725 166.153 M154.207 168.702 C 156.280 169.432,157.338 170.668,157.888 173.003 C 158.699 176.442,158.146 176.732,154.000 175.044 C 151.613 174.071,151.055 173.997,148.000 174.243 C 146.608 174.356,145.880 171.461,146.943 170.035 C 148.167 168.393,151.562 167.770,154.207 168.702 M214.954 172.509 C 218.285 173.459,218.420 175.030,215.172 175.052 C 212.741 175.069,211.000 174.210,211.000 172.996 C 211.000 171.967,212.436 171.791,214.954 172.509 M187.967 175.082 C 189.467 176.581,183.790 178.760,182.050 177.353 C 181.372 176.805,182.117 175.645,183.307 175.395 C 183.743 175.304,184.550 175.091,185.100 174.922 C 186.263 174.566,187.522 174.636,187.967 175.082 M231.108 178.189 C 234.723 179.969,235.874 183.082,233.332 184.206 C 232.481 184.583,232.456 184.583,231.432 184.194 C 230.861 183.977,229.429 183.571,228.250 183.293 C 223.536 182.179,222.826 181.243,224.958 178.954 C 226.632 177.157,228.532 176.921,231.108 178.189 M172.736 180.418 C 173.725 180.896,175.133 182.439,175.308 183.236 C 175.585 184.498,174.723 185.024,170.800 185.989 C 169.425 186.327,167.952 186.741,167.527 186.910 C 166.551 187.296,165.636 187.038,164.907 186.171 C 162.700 183.549,169.254 178.732,172.736 180.418 " stroke="none" fill="#050504" fill-rule="evenodd"></path></g></svg>