<svg id="svg" xmlns="http://www.w3.org/2000/svg" xmlns:xlink="http://www.w3.org/1999/xlink" width="400" height="566.0377358490566" viewBox="0, 0, 400,566.0377358490566"><g id="svgg"><path id="path0" d="M275.400 27.450 C 271.166 28.284,269.735 28.647,266.699 29.660 C 256.204 33.161,247.393 40.861,241.846 51.379 C 239.269 56.265,238.338 59.459,237.283 67.028 C 237.013 68.960,236.832 69.205,233.429 72.228 C 223.624 80.937,213.904 95.505,210.228 107.000 C 209.594 108.980,208.974 110.780,208.848 111.000 C 208.723 111.220,208.559 111.846,208.484 112.390 C 208.410 112.935,208.158 113.610,207.925 113.890 C 207.693 114.171,207.605 114.400,207.732 114.400 C 207.858 114.400,207.693 115.255,207.364 116.300 C 207.035 117.345,206.683 118.515,206.583 118.900 C 206.217 120.301,205.955 121.421,205.764 122.400 C 205.656 122.950,205.452 123.760,205.309 124.200 C 204.985 125.196,204.825 125.902,204.612 127.275 C 204.414 128.543,203.660 131.546,203.325 132.400 C 203.195 132.730,203.052 133.270,203.006 133.600 C 202.681 135.966,199.442 145.639,197.582 149.800 C 191.377 163.676,180.009 174.621,162.918 183.174 C 158.298 185.486,149.787 189.103,148.426 189.333 C 148.082 189.391,147.440 189.631,147.000 189.866 C 146.147 190.320,137.390 193.222,121.800 198.216 C 88.898 208.754,69.448 221.275,50.360 244.200 C 35.881 261.591,23.489 287.648,19.362 309.384 C 19.276 309.833,19.112 310.650,18.996 311.200 C 18.880 311.750,18.689 312.830,18.572 313.600 C 18.455 314.370,18.171 316.080,17.941 317.400 C 17.505 319.900,17.366 320.866,16.965 324.200 C 16.833 325.300,16.662 326.650,16.586 327.200 C 16.150 330.337,15.905 336.395,15.913 343.800 C 15.924 353.625,16.190 358.706,17.042 365.400 C 17.182 366.500,17.340 367.760,17.393 368.200 C 17.445 368.640,17.606 369.630,17.749 370.400 C 17.892 371.170,18.083 372.469,18.173 373.287 C 18.263 374.104,18.428 374.922,18.541 375.104 C 18.653 375.285,18.835 376.146,18.946 377.017 C 20.007 385.344,25.598 401.943,31.007 412.827 C 51.415 453.892,88.456 477.333,140.000 481.800 C 141.430 481.924,143.320 482.100,144.200 482.191 C 145.080 482.283,147.600 482.465,149.800 482.597 C 152.000 482.730,154.970 482.925,156.400 483.031 C 157.830 483.137,170.070 483.180,183.600 483.125 C 222.870 482.967,228.614 482.984,235.600 483.279 C 241.873 483.543,243.929 483.680,249.700 484.220 C 251.075 484.348,252.539 484.451,252.952 484.448 C 253.366 484.444,256.336 484.792,259.552 485.220 C 262.769 485.648,265.940 486.070,266.600 486.157 C 302.703 490.922,345.166 512.211,372.711 539.355 L 377.221 543.800 376.400 541.400 C 372.520 530.055,366.957 519.320,360.283 510.295 C 359.026 508.594,357.973 507.067,357.944 506.901 C 357.916 506.736,357.557 506.365,357.146 506.077 C 356.736 505.790,356.400 505.400,356.400 505.211 C 356.400 504.336,344.469 492.655,339.800 488.958 C 336.940 486.693,334.285 484.561,333.900 484.220 C 333.515 483.879,333.108 483.600,332.996 483.600 C 332.645 483.600,325.413 479.074,325.155 478.693 C 325.021 478.494,324.751 478.339,324.555 478.347 C 324.023 478.371,316.645 474.662,316.306 474.200 C 316.144 473.980,316.009 473.940,316.006 474.110 C 316.003 474.281,315.462 474.142,314.804 473.802 C 314.146 473.462,313.471 473.179,313.304 473.172 C 313.137 473.166,312.595 472.896,312.100 472.571 C 311.605 472.247,311.200 472.082,311.200 472.205 C 311.200 472.328,310.795 472.206,310.300 471.934 C 309.805 471.662,309.054 471.382,308.631 471.312 C 308.209 471.241,307.669 471.028,307.431 470.836 C 306.739 470.278,297.461 467.430,293.600 466.590 C 293.270 466.519,291.812 466.179,290.361 465.835 C 288.909 465.492,287.109 465.124,286.361 465.019 C 285.612 464.914,284.550 464.735,284.000 464.621 C 281.363 464.074,279.086 463.703,276.200 463.347 C 275.540 463.266,274.370 463.117,273.600 463.017 C 267.700 462.247,265.692 462.086,258.400 461.797 C 250.170 461.471,232.233 461.477,224.400 461.809 C 220.550 461.972,215.690 462.162,213.600 462.232 C 211.510 462.301,207.730 462.440,205.200 462.540 C 189.648 463.157,184.363 463.273,171.600 463.279 C 158.271 463.285,154.926 463.187,149.000 462.612 C 147.680 462.484,146.330 462.365,146.000 462.347 C 123.753 461.125,96.637 451.535,79.600 438.866 C 62.087 425.842,43.998 398.770,40.667 380.600 C 40.586 380.160,40.394 379.510,40.239 379.156 C 40.084 378.802,39.911 378.074,39.854 377.539 C 39.797 377.004,39.650 376.394,39.527 376.183 C 39.332 375.846,39.029 374.481,38.555 371.800 C 38.478 371.360,38.245 370.190,38.038 369.200 C 37.832 368.210,37.539 366.500,37.387 365.400 C 37.236 364.300,37.048 362.950,36.969 362.400 C 35.602 352.834,35.423 338.689,36.542 328.800 C 36.679 327.590,36.811 326.330,36.835 326.000 C 36.946 324.488,37.668 319.739,37.869 319.200 C 37.992 318.870,38.164 317.896,38.251 317.035 C 38.339 316.174,38.586 315.257,38.802 314.998 C 39.017 314.739,39.097 314.430,38.979 314.312 C 38.715 314.049,39.586 310.367,40.054 309.763 C 40.241 309.523,40.302 309.235,40.190 309.123 C 39.448 308.381,45.554 291.004,49.368 283.000 C 65.710 248.712,93.259 224.392,131.600 210.408 C 134.130 209.486,137.100 208.399,138.200 207.993 C 139.300 207.587,141.820 206.668,143.800 205.951 C 145.780 205.233,150.370 203.497,154.000 202.094 C 157.630 200.690,160.780 199.510,161.000 199.471 C 161.220 199.432,161.490 199.301,161.600 199.179 C 161.710 199.057,162.790 198.546,164.000 198.042 C 180.817 191.045,196.042 178.800,203.095 166.600 C 204.546 164.090,207.600 157.825,207.600 157.358 C 207.600 157.257,207.899 156.505,208.264 155.687 C 208.629 154.869,208.966 154.065,209.014 153.900 C 209.061 153.735,209.136 153.555,209.181 153.500 C 209.225 153.445,209.324 153.071,209.400 152.669 C 209.476 152.267,209.669 151.637,209.830 151.269 C 209.990 150.901,210.173 150.340,210.236 150.022 C 210.300 149.704,210.899 147.454,211.568 145.022 C 212.236 142.590,213.781 136.100,215.001 130.600 C 216.220 125.100,217.328 120.330,217.462 120.000 C 217.596 119.670,217.759 119.040,217.824 118.600 C 218.160 116.336,221.974 104.160,224.382 97.663 C 227.470 89.334,236.046 71.194,237.115 70.731 C 237.282 70.659,238.810 68.143,240.510 65.141 C 250.323 47.814,262.549 37.175,281.800 29.209 L 286.600 27.223 281.400 27.258 C 278.540 27.277,275.840 27.364,275.400 27.450 M291.800 29.578 C 271.105 34.947,256.970 53.511,258.164 73.754 C 258.369 77.228,259.134 81.079,259.188 78.904 C 259.210 78.016,263.248 67.498,265.064 63.600 C 271.176 50.482,283.929 37.279,298.600 28.882 C 300.143 27.999,296.417 28.380,291.800 29.578 M299.260 33.655 C 285.132 42.886,288.821 63.843,305.347 68.244 C 308.371 69.049,308.364 68.993,305.150 66.644 C 295.178 59.356,293.841 44.760,302.077 33.100 C 303.207 31.501,302.277 31.684,299.260 33.655 M313.425 70.679 C 328.593 79.715,331.443 84.379,336.596 108.600 C 337.061 110.784,338.283 113.910,340.443 118.444 C 346.834 131.855,347.556 137.608,343.786 145.105 C 340.053 152.528,335.110 156.340,323.440 160.797 C 308.787 166.393,302.371 171.998,297.990 183.025 C 293.502 194.323,295.961 207.736,304.018 215.916 C 306.554 218.490,306.647 218.441,305.338 215.200 C 301.567 205.866,301.591 191.962,305.391 183.736 C 309.715 174.378,315.259 169.852,328.249 165.076 C 340.594 160.537,346.829 156.276,350.053 150.175 C 351.161 148.078,350.952 148.076,357.500 150.252 C 364.957 152.730,371.497 156.040,377.200 160.222 L 380.200 162.423 377.367 159.711 C 371.769 154.354,363.397 149.183,355.317 146.093 C 350.888 144.399,351.706 143.783,358.287 143.858 C 365.907 143.945,373.601 145.489,379.700 148.155 C 383.009 149.601,380.930 148.217,377.034 146.379 C 370.405 143.252,361.510 140.811,356.680 140.794 C 353.796 140.783,353.634 140.194,356.246 139.217 C 365.101 135.904,373.492 136.138,381.167 139.912 C 382.945 140.787,384.400 141.455,384.400 141.398 C 384.400 141.121,379.173 137.940,377.513 137.207 C 372.110 134.822,363.864 134.067,357.565 135.381 C 355.934 135.721,354.555 135.999,354.500 136.000 C 354.445 136.000,354.400 135.210,354.400 134.245 C 354.400 131.208,352.553 125.940,348.844 118.401 C 346.173 112.971,344.527 108.903,342.392 102.456 C 335.390 81.307,329.589 74.407,315.000 69.877 C 310.373 68.441,309.993 68.634,313.425 70.679 M318.578 97.154 C 311.408 100.411,311.813 109.792,319.346 114.980 C 323.510 117.848,328.496 118.751,325.348 116.067 L 324.097 115.000 324.875 113.969 C 326.499 111.818,326.891 107.750,325.500 107.482 C 324.617 107.312,324.618 107.308,325.556 107.254 C 326.545 107.198,326.654 104.565,325.765 102.200 C 325.468 101.410,325.475 101.410,326.336 102.165 C 327.140 102.871,327.608 104.067,328.189 106.900 C 328.491 108.367,328.973 108.287,329.754 106.640 C 332.547 100.755,324.913 94.277,318.578 97.154 M322.265 101.375 C 321.206 104.133,321.100 109.643,322.052 112.400 C 322.337 113.223,322.144 113.117,320.962 111.800 C 317.610 108.065,317.018 104.502,319.360 102.160 C 320.738 100.782,322.695 100.253,322.265 101.375 M281.000 126.598 C 275.920 127.321,271.834 128.222,267.880 129.492 C 264.050 130.721,264.010 131.087,267.826 129.985 C 286.921 124.471,312.198 127.789,333.024 138.542 L 337.847 141.033 338.915 139.664 C 340.230 137.976,340.263 138.025,336.710 136.292 C 320.053 128.170,297.516 124.248,281.000 126.598 M320.400 140.020 C 297.933 140.865,276.417 144.973,257.955 151.942 C 254.520 153.238,251.370 154.515,250.955 154.780 C 250.048 155.357,250.087 155.345,254.964 153.535 C 265.648 149.572,282.765 145.827,297.800 144.164 C 304.229 143.453,328.610 143.007,326.200 143.644 C 325.320 143.877,322.710 144.516,320.400 145.065 C 292.796 151.624,265.310 167.297,255.259 182.210 L 253.918 184.200 255.452 182.400 C 271.325 163.776,301.513 149.721,333.744 145.947 C 338.463 145.395,338.652 145.269,338.221 142.970 C 337.971 141.640,337.877 141.564,336.777 141.805 C 335.725 142.036,335.600 141.960,335.600 141.087 C 335.600 140.033,333.536 139.527,329.800 139.667 C 328.920 139.699,324.690 139.858,320.400 140.020 M308.183 221.815 C 323.037 244.289,321.795 257.168,301.880 287.200 C 273.570 329.891,266.734 351.125,272.648 378.000 C 277.432 399.738,282.110 413.366,286.977 419.742 C 287.850 420.887,288.351 421.925,288.223 422.328 C 288.065 422.826,288.690 423.415,290.637 424.600 C 302.083 431.568,302.366 444.999,291.227 452.610 C 288.084 454.757,288.003 455.200,290.752 455.200 C 297.789 455.200,304.395 448.186,305.083 439.984 C 305.815 431.243,299.299 422.733,291.386 422.098 L 288.957 421.903 287.291 416.452 C 277.225 383.526,279.226 357.681,294.262 326.419 C 299.787 314.929,302.226 310.631,316.375 287.449 C 330.282 264.661,327.675 235.490,310.600 222.831 C 307.550 220.569,307.286 220.459,308.183 221.815 M235.643 327.254 C 227.411 344.163,224.259 373.763,228.642 393.000 C 234.121 417.043,246.996 435.103,266.126 445.579 L 268.452 446.853 265.299 442.527 C 251.837 424.054,246.548 412.876,241.202 391.600 C 236.081 371.225,235.393 356.643,238.172 327.400 C 238.464 324.320,238.644 321.734,238.572 321.654 C 238.500 321.573,237.182 324.093,235.643 327.254 M130.400 340.447 C 120.708 341.417,110.165 344.619,101.722 349.156 C 95.437 352.534,96.999 353.289,106.240 351.341 C 122.162 347.984,145.928 351.728,159.417 359.718 C 172.000 367.171,186.021 378.569,188.207 383.122 C 188.598 383.935,189.045 384.870,189.201 385.200 C 189.358 385.530,189.781 385.858,190.143 385.929 C 192.888 386.470,186.536 369.050,181.271 361.600 C 169.564 345.035,153.069 338.176,130.400 340.447 M94.582 430.029 C 93.537 431.720,107.272 440.536,116.933 444.373 C 135.177 451.621,165.228 454.280,216.600 453.195 C 245.654 452.581,247.443 452.736,257.778 456.745 C 259.526 457.423,261.010 457.923,261.076 457.857 C 261.798 457.136,253.970 452.692,249.382 451.218 C 239.580 448.069,235.120 447.630,186.000 444.984 C 150.062 443.049,127.230 439.433,105.145 432.180 C 97.435 429.647,95.110 429.174,94.582 430.029 " stroke="none" fill="#000000" fill-rule="evenodd"></path></g></svg>