<svg id="svg" xmlns="http://www.w3.org/2000/svg" xmlns:xlink="http://www.w3.org/1999/xlink" width="400" height="398.7138263665595" viewBox="0, 0, 400,398.7138263665595"><g id="svgg"><path id="path0" d="M152.077 33.480 C 141.088 35.721,134.006 42.687,131.197 54.019 C 128.323 65.613,130.034 139.884,133.315 145.981 C 145.557 168.727,181.134 165.629,188.393 141.185 C 190.798 133.084,191.253 61.914,188.954 53.376 C 184.818 38.018,169.732 29.879,152.077 33.480 M57.449 35.584 C 56.409 36.624,56.285 158.199,57.325 158.199 C 57.728 158.199,60.490 156.526,63.463 154.480 C 66.436 152.435,71.026 149.860,73.662 148.758 L 78.457 146.755 78.457 124.824 L 78.457 102.894 88.103 102.894 L 97.749 102.894 97.749 123.306 L 97.749 143.717 103.710 145.386 C 107.176 146.357,111.481 148.866,113.999 151.384 L 118.328 155.713 118.328 95.220 L 118.328 34.727 108.039 34.727 L 97.749 34.727 97.749 59.807 L 97.749 84.887 88.103 84.887 L 78.457 84.887 78.457 59.807 L 78.457 34.727 68.382 34.727 C 62.840 34.727,57.921 35.113,57.449 35.584 M201.929 97.106 L 201.929 159.486 210.915 159.486 L 219.901 159.486 220.240 116.263 L 220.579 73.040 227.010 115.941 L 233.441 158.842 242.053 159.221 L 250.666 159.600 251.448 155.363 C 251.878 153.032,254.745 134.630,257.820 114.469 L 263.410 77.814 263.538 118.650 L 263.666 159.486 268.862 159.486 C 271.719 159.486,276.350 158.316,279.151 156.887 L 284.244 154.289 284.244 94.508 L 284.244 34.727 269.453 34.727 C 261.318 34.727,254.662 35.111,254.662 35.581 C 254.662 37.611,244.236 111.561,243.539 114.469 C 242.493 118.841,242.722 120.137,236.551 74.920 L 231.067 34.727 216.498 34.727 L 201.929 34.727 201.929 97.106 M297.106 93.765 L 297.106 152.803 300.906 154.128 C 304.278 155.303,304.801 155.136,305.552 152.646 C 306.017 151.102,307.721 148.392,309.337 146.624 C 310.953 144.855,312.698 140.812,313.215 137.638 C 313.732 134.464,314.950 129.616,315.920 126.865 C 316.891 124.114,317.685 117.595,317.685 112.378 L 317.685 102.894 331.190 102.894 L 344.695 102.894 344.695 93.891 L 344.695 84.887 331.190 84.887 L 317.685 84.887 317.685 68.810 L 317.685 52.733 334.405 52.733 L 351.125 52.733 351.125 43.730 L 351.125 34.727 324.116 34.727 L 297.106 34.727 297.106 93.765 M167.217 55.627 C 170.190 60.503,171.174 128.078,168.389 136.069 C 165.527 144.278,154.195 143.722,151.702 135.249 C 149.052 126.238,150.642 57.391,153.576 54.152 C 157.538 49.777,164.081 50.485,167.217 55.627 M326.722 127.933 C 325.860 128.972,324.203 134.682,323.038 140.624 C 321.400 148.983,320.337 151.683,318.338 152.562 C 314.885 154.080,314.061 159.486,317.283 159.486 C 320.909 159.486,319.929 196.958,316.164 202.254 C 307.285 214.743,291.445 217.267,286.154 207.036 C 284.243 203.340,284.274 203.215,287.105 203.203 C 304.904 203.126,316.766 178.978,304.520 167.750 C 289.398 153.882,266.048 173.233,265.596 200.008 C 265.307 217.135,252.015 229.091,239.175 223.772 C 234.964 222.028,230.065 214.797,233.086 214.784 C 253.640 214.694,265.576 186.539,249.170 176.848 C 233.389 167.526,213.178 186.648,212.769 211.288 C 212.562 223.752,206.396 231.511,196.698 231.511 C 193.669 231.511,193.670 231.494,197.468 221.222 C 204.439 202.363,199.409 185.235,186.893 185.214 C 182.911 185.207,182.733 185.931,183.764 197.930 C 185.128 213.809,183.546 225.807,179.564 229.790 C 177.800 231.554,176.179 234.543,175.960 236.434 C 175.651 239.110,174.869 239.871,172.429 239.871 C 167.510 239.871,166.603 233.873,168.564 214.323 L 170.223 197.777 167.105 195.380 C 158.165 188.505,152.449 190.987,151.229 202.272 C 148.829 224.456,146.522 235.961,143.408 241.275 C 134.827 255.916,129.877 247.086,133.075 222.841 C 135.518 204.322,132.494 198.072,121.829 199.595 C 113.522 200.782,110.368 244.446,117.938 253.443 C 125.351 262.252,138.790 260.136,147.299 248.820 L 151.209 243.620 156.892 247.212 C 165.837 252.866,177.213 251.219,184.444 243.224 C 185.953 241.555,188.458 240.514,190.967 240.514 C 197.305 240.514,206.345 236.916,211.754 232.240 L 216.680 227.982 220.559 230.936 C 232.894 240.331,253.357 236.457,265.341 222.457 L 269.804 217.242 274.533 220.452 C 286.803 228.778,304.777 225.164,317.528 211.806 L 321.872 207.255 326.531 210.324 C 340.405 219.462,357.709 211.870,364.694 193.581 C 368.013 184.891,363.439 179.145,359.820 187.460 C 348.493 213.489,335.617 207.087,337.396 176.309 C 338.569 156.010,339.008 154.559,344.269 153.572 C 353.642 151.814,355.993 144.508,346.740 145.896 L 341.069 146.746 341.766 139.053 C 342.676 129.019,332.230 121.297,326.722 127.933 M82.958 156.140 C 49.891 166.598,45.043 189.745,70.153 217.279 C 86.981 235.733,90.167 245.560,82.143 254.265 C 65.078 272.778,39.542 250.129,55.196 230.364 C 64.452 218.676,51.289 220.618,38.746 232.790 C 12.572 258.191,55.527 286.489,88.369 265.480 C 110.816 251.121,111.102 233.076,89.256 209.485 C 69.466 188.115,67.005 173.832,81.866 166.602 C 92.611 161.375,97.250 166.255,93.170 178.493 C 89.610 189.168,89.618 189.068,92.337 189.068 C 95.909 189.068,101.377 184.376,105.641 177.653 C 116.253 160.920,104.147 149.439,82.958 156.140 M298.364 175.241 C 298.308 183.600,289.497 196.802,285.101 195.115 C 281.939 193.902,285.806 179.169,290.993 172.669 C 293.805 169.146,298.394 170.748,298.364 175.241 M245.414 184.889 C 246.148 189.859,243.055 197.922,238.603 202.642 C 233.796 207.738,230.692 207.919,231.173 203.074 C 232.569 189.019,243.889 174.564,245.414 184.889 M61.736 248.145 C 61.736 249.929,66.624 251.147,70.189 250.252 C 75.341 248.959,73.718 246.945,67.524 246.945 C 64.341 246.945,61.736 247.485,61.736 248.145 M202.251 248.549 L 198.071 249.890 198.071 310.797 L 198.071 371.704 207.057 371.704 L 216.043 371.704 216.382 328.481 L 216.720 285.258 223.151 328.160 L 229.582 371.061 238.195 371.440 L 246.807 371.819 247.589 367.581 C 248.019 365.251,250.887 346.849,253.961 326.688 L 259.552 290.032 259.679 330.868 L 259.807 371.704 270.096 371.704 L 280.386 371.704 280.386 309.325 L 280.386 246.945 265.595 246.945 C 257.460 246.945,250.804 247.330,250.804 247.800 C 250.804 249.830,240.377 323.780,239.681 326.688 C 238.634 331.060,238.863 332.356,232.693 287.138 L 227.208 246.945 216.819 247.077 C 211.106 247.149,204.550 247.811,202.251 248.549 M293.248 309.325 L 293.248 371.704 320.257 371.704 L 347.267 371.704 347.267 362.058 L 347.267 352.412 330.547 352.412 L 313.826 352.412 313.826 333.762 L 313.826 315.113 327.331 315.113 L 340.836 315.113 340.836 306.109 L 340.836 297.106 327.331 297.106 L 313.826 297.106 313.826 281.029 L 313.826 264.952 330.547 264.952 L 347.267 264.952 347.267 255.949 L 347.267 246.945 320.257 246.945 L 293.248 246.945 293.248 309.325 M150.425 260.512 C 146.512 264.677,138.179 268.577,131.833 269.214 L 126.688 269.730 126.688 311.392 C 126.688 357.098,126.886 358.364,135.262 366.177 C 146.134 376.318,169.787 375.203,179.121 364.109 C 185.762 356.216,186.505 350.505,186.396 308.127 C 186.286 265.004,185.484 258.904,180.000 259.515 C 178.267 259.708,173.829 260.212,170.137 260.635 C 165.488 261.169,161.880 260.787,158.396 259.393 C 153.499 257.433,153.289 257.463,150.425 260.512 M101.286 267.636 L 93.891 275.021 93.891 286.063 L 93.891 297.106 84.244 297.106 L 74.598 297.106 74.598 289.711 L 74.598 282.315 63.649 282.315 L 52.701 282.315 53.038 326.688 L 53.376 371.061 63.987 371.435 L 74.598 371.808 74.598 343.460 L 74.598 315.113 84.244 315.113 L 93.891 315.113 93.891 343.408 L 93.891 371.704 104.180 371.704 L 114.469 371.704 114.469 317.884 C 114.469 252.473,114.885 254.056,101.286 267.636 M163.358 267.846 C 166.331 272.722,167.316 340.297,164.530 348.287 C 161.668 356.497,150.336 355.940,147.844 347.468 C 145.193 338.457,146.783 269.610,149.717 266.371 C 153.679 261.996,160.223 262.703,163.358 267.846 " stroke="none" fill="#000000" fill-rule="evenodd"></path></g></svg>